<svg width="239" height="33" viewBox="0 0 239 33" fill="none" xmlns="http://www.w3.org/2000/svg">
<g filter="url(#filter0_i_0_1)">
<path d="M6.7205 2.152C8.61917 2.152 10.1765 2.39733 11.3925 2.888C12.6298 3.35733 13.5472 4.072 14.1445 5.032C14.7418 5.992 15.0405 7.19733 15.0405 8.648C15.0405 9.864 14.8165 10.8773 14.3685 11.688C13.9205 12.4987 13.3445 13.1493 12.6405 13.64C11.9578 14.1093 11.2325 14.4827 10.4645 14.76L16.7365 25H13.3765L7.8405 15.56H3.2965V25H0.4165V2.152H6.7205ZM6.5605 4.648H3.2965V13.128H6.7205C7.95783 13.128 8.97117 12.968 9.7605 12.648C10.5498 12.3067 11.1258 11.816 11.4885 11.176C11.8725 10.536 12.0645 9.736 12.0645 8.776C12.0645 7.77333 11.8618 6.97333 11.4565 6.376C11.0725 5.77867 10.4752 5.34133 9.6645 5.064C8.85383 4.78667 7.81917 4.648 6.5605 4.648ZM41.5953 18.888C41.5953 20.2533 41.2646 21.416 40.6033 22.376C39.9419 23.3147 38.9926 24.04 37.7553 24.552C36.5393 25.064 35.0993 25.32 33.4353 25.32C32.5819 25.32 31.7606 25.2773 30.9713 25.192C30.2033 25.1067 29.4993 24.9893 28.8593 24.84C28.2193 24.6693 27.6539 24.4667 27.1633 24.232V21.48C27.9313 21.8213 28.8806 22.1307 30.0113 22.408C31.1633 22.6853 32.3473 22.824 33.5633 22.824C34.6939 22.824 35.6433 22.6747 36.4113 22.376C37.1793 22.0773 37.7553 21.6507 38.1393 21.096C38.5233 20.5413 38.7153 19.8907 38.7153 19.144C38.7153 18.3973 38.5553 17.768 38.2353 17.256C37.9153 16.744 37.3606 16.2747 36.5713 15.848C35.8033 15.4 34.7259 14.9307 33.3393 14.44C32.3579 14.0773 31.4939 13.6933 30.7473 13.288C30.0219 12.8613 29.4139 12.3813 28.9233 11.848C28.4326 11.3147 28.0593 10.7067 27.8033 10.024C27.5686 9.34133 27.4513 8.552 27.4513 7.656C27.4513 6.44 27.7606 5.40533 28.3793 4.552C28.9979 3.67733 29.8513 3.00533 30.9393 2.536C32.0486 2.06667 33.3179 1.832 34.7473 1.832C36.0059 1.832 37.1579 1.94933 38.2033 2.184C39.2486 2.41867 40.1979 2.728 41.0513 3.112L40.1553 5.576C39.3659 5.23467 38.5019 4.94667 37.5633 4.712C36.6459 4.47733 35.6859 4.36 34.6833 4.36C33.7233 4.36 32.9233 4.49867 32.2833 4.776C31.6433 5.05333 31.1633 5.448 30.8433 5.96C30.5233 6.45067 30.3633 7.02667 30.3633 7.688C30.3633 8.456 30.5233 9.096 30.8433 9.608C31.1633 10.12 31.6859 10.5787 32.4113 10.984C33.1366 11.3893 34.1179 11.8267 35.3553 12.296C36.6993 12.7867 37.8299 13.32 38.7473 13.896C39.6859 14.4507 40.3899 15.1227 40.8593 15.912C41.3499 16.7013 41.5953 17.6933 41.5953 18.888ZM48.6298 7.848V25H45.8138V7.848H48.6298ZM47.2538 1.416C47.6804 1.416 48.0538 1.56533 48.3738 1.864C48.7151 2.14133 48.8858 2.58933 48.8858 3.208C48.8858 3.80533 48.7151 4.25333 48.3738 4.552C48.0538 4.85067 47.6804 5 47.2538 5C46.7844 5 46.3898 4.85067 46.0698 4.552C45.7498 4.25333 45.5898 3.80533 45.5898 3.208C45.5898 2.58933 45.7498 2.14133 46.0698 1.864C46.3898 1.56533 46.7844 1.416 47.2538 1.416ZM72.8798 7.528C74.8211 7.528 76.2718 8.02933 77.2318 9.032C78.1918 10.0133 78.6718 11.6133 78.6718 13.832V25H75.8878V13.96C75.8878 12.616 75.5998 11.6027 75.0238 10.92C74.4691 10.2373 73.5944 9.896 72.3998 9.896C70.7358 9.896 69.5411 10.376 68.8158 11.336C68.1118 12.296 67.7598 13.6933 67.7598 15.528V25H64.9758V13.96C64.9758 13.064 64.8478 12.3173 64.5918 11.72C64.3358 11.1013 63.9518 10.6427 63.4398 10.344C62.9278 10.0453 62.2664 9.896 61.4558 9.896C60.3038 9.896 59.3971 10.1413 58.7358 10.632C58.0744 11.1013 57.5944 11.7947 57.2958 12.712C57.0184 13.6293 56.8798 14.76 56.8798 16.104V25H54.0638V7.848H56.3358L56.7518 10.184H56.9118C57.2744 9.58667 57.7118 9.096 58.2238 8.712C58.7571 8.30667 59.3438 8.008 59.9838 7.816C60.6238 7.624 61.2851 7.528 61.9678 7.528C63.2904 7.528 64.3891 7.76267 65.2638 8.232C66.1598 8.70133 66.8104 9.42667 67.2158 10.408H67.3758C67.9518 9.42667 68.7304 8.70133 69.7118 8.232C70.7144 7.76267 71.7704 7.528 72.8798 7.528ZM92.13 7.528C94.242 7.528 95.938 8.264 97.218 9.736C98.5193 11.208 99.17 13.4267 99.17 16.392C99.17 18.3333 98.8713 19.976 98.274 21.32C97.698 22.6427 96.8767 23.6453 95.81 24.328C94.7647 24.9893 93.5273 25.32 92.098 25.32C91.2233 25.32 90.4447 25.2027 89.762 24.968C89.0793 24.7333 88.4927 24.4347 88.002 24.072C87.5327 23.688 87.1273 23.272 86.786 22.824H86.594C86.6367 23.1867 86.6793 23.6453 86.722 24.2C86.7647 24.7547 86.786 25.2347 86.786 25.64V32.68H83.97V7.848H86.274L86.658 10.184H86.786C87.1273 9.69333 87.5327 9.24533 88.002 8.84C88.4927 8.43467 89.0687 8.11467 89.73 7.88C90.4127 7.64533 91.2127 7.528 92.13 7.528ZM91.618 9.896C90.466 9.896 89.538 10.12 88.834 10.568C88.13 10.9947 87.618 11.6453 87.298 12.52C86.978 13.3947 86.8073 14.504 86.786 15.848V16.392C86.786 17.8 86.9353 18.9947 87.234 19.976C87.5327 20.9573 88.034 21.704 88.738 22.216C89.4633 22.728 90.4447 22.984 91.682 22.984C92.7273 22.984 93.5807 22.696 94.242 22.12C94.9247 21.544 95.426 20.7653 95.746 19.784C96.0873 18.7813 96.258 17.64 96.258 16.36C96.258 14.3973 95.874 12.8293 95.106 11.656C94.3593 10.4827 93.1967 9.896 91.618 9.896ZM106.474 25H103.658V0.679998H106.474V25ZM118.532 7.528C120.004 7.528 121.262 7.848 122.308 8.488C123.374 9.128 124.185 10.0347 124.74 11.208C125.316 12.36 125.604 13.7147 125.604 15.272V16.968H113.86C113.902 18.9093 114.393 20.392 115.332 21.416C116.292 22.4187 117.625 22.92 119.332 22.92C120.42 22.92 121.38 22.824 122.212 22.632C123.065 22.4187 123.94 22.12 124.836 21.736V24.2C123.961 24.584 123.097 24.8613 122.244 25.032C121.39 25.224 120.377 25.32 119.204 25.32C117.582 25.32 116.142 24.9893 114.884 24.328C113.646 23.6667 112.676 22.6853 111.972 21.384C111.289 20.0613 110.948 18.4507 110.948 16.552C110.948 14.6747 111.257 13.064 111.876 11.72C112.516 10.376 113.401 9.34133 114.532 8.616C115.684 7.89067 117.017 7.528 118.532 7.528ZM118.5 9.832C117.156 9.832 116.089 10.2693 115.3 11.144C114.532 11.9973 114.073 13.192 113.924 14.728H122.66C122.66 13.7467 122.51 12.8933 122.212 12.168C121.913 11.4427 121.454 10.8773 120.836 10.472C120.238 10.0453 119.46 9.832 118.5 9.832ZM151.627 18.888C151.627 20.2533 151.296 21.416 150.635 22.376C149.973 23.3147 149.024 24.04 147.787 24.552C146.571 25.064 145.131 25.32 143.467 25.32C142.613 25.32 141.792 25.2773 141.003 25.192C140.235 25.1067 139.531 24.9893 138.891 24.84C138.251 24.6693 137.685 24.4667 137.195 24.232V21.48C137.963 21.8213 138.912 22.1307 140.043 22.408C141.195 22.6853 142.379 22.824 143.595 22.824C144.725 22.824 145.675 22.6747 146.443 22.376C147.211 22.0773 147.787 21.6507 148.171 21.096C148.555 20.5413 148.747 19.8907 148.747 19.144C148.747 18.3973 148.587 17.768 148.267 17.256C147.947 16.744 147.392 16.2747 146.603 15.848C145.835 15.4 144.757 14.9307 143.371 14.44C142.389 14.0773 141.525 13.6933 140.779 13.288C140.053 12.8613 139.445 12.3813 138.955 11.848C138.464 11.3147 138.091 10.7067 137.835 10.024C137.6 9.34133 137.483 8.552 137.483 7.656C137.483 6.44 137.792 5.40533 138.411 4.552C139.029 3.67733 139.883 3.00533 140.971 2.536C142.08 2.06667 143.349 1.832 144.779 1.832C146.037 1.832 147.189 1.94933 148.235 2.184C149.28 2.41867 150.229 2.728 151.083 3.112L150.187 5.576C149.397 5.23467 148.533 4.94667 147.595 4.712C146.677 4.47733 145.717 4.36 144.715 4.36C143.755 4.36 142.955 4.49867 142.315 4.776C141.675 5.05333 141.195 5.448 140.875 5.96C140.555 6.45067 140.395 7.02667 140.395 7.688C140.395 8.456 140.555 9.096 140.875 9.608C141.195 10.12 141.717 10.5787 142.443 10.984C143.168 11.3893 144.149 11.8267 145.387 12.296C146.731 12.7867 147.861 13.32 148.779 13.896C149.717 14.4507 150.421 15.1227 150.891 15.912C151.381 16.7013 151.627 17.6933 151.627 18.888ZM161.573 23.016C162 23.016 162.437 22.984 162.885 22.92C163.333 22.8347 163.696 22.7493 163.973 22.664V24.808C163.674 24.9573 163.248 25.0747 162.693 25.16C162.138 25.2667 161.605 25.32 161.093 25.32C160.197 25.32 159.365 25.1707 158.597 24.872C157.85 24.552 157.242 24.008 156.773 23.24C156.304 22.472 156.069 21.3947 156.069 20.008V10.024H153.637V8.68L156.101 7.56L157.221 3.912H158.885V7.848H163.845V10.024H158.885V19.944C158.885 20.9893 159.13 21.768 159.621 22.28C160.133 22.7707 160.784 23.016 161.573 23.016ZM173.904 7.56C175.994 7.56 177.541 8.01867 178.544 8.936C179.546 9.85333 180.048 11.3147 180.048 13.32V25H178L177.456 22.568H177.328C176.837 23.1867 176.325 23.7093 175.792 24.136C175.28 24.5413 174.682 24.84 174 25.032C173.338 25.224 172.528 25.32 171.568 25.32C170.544 25.32 169.616 25.1387 168.784 24.776C167.973 24.4133 167.333 23.8587 166.864 23.112C166.394 22.344 166.16 21.384 166.16 20.232C166.16 18.5253 166.832 17.2133 168.176 16.296C169.52 15.3573 171.589 14.8453 174.384 14.76L177.296 14.664V13.64C177.296 12.2107 176.986 11.2187 176.368 10.664C175.749 10.1093 174.874 9.832 173.744 9.832C172.848 9.832 171.994 9.97067 171.184 10.248C170.373 10.504 169.616 10.8027 168.911 11.144L168.048 9.032C168.794 8.62667 169.68 8.28533 170.704 8.008C171.728 7.70933 172.794 7.56 173.904 7.56ZM174.736 16.712C172.602 16.7973 171.12 17.1387 170.288 17.736C169.477 18.3333 169.072 19.176 169.072 20.264C169.072 21.224 169.36 21.928 169.936 22.376C170.533 22.824 171.29 23.048 172.208 23.048C173.658 23.048 174.864 22.6533 175.824 21.864C176.784 21.0533 177.264 19.816 177.264 18.152V16.616L174.736 16.712ZM193.345 7.528C193.665 7.528 194.006 7.54933 194.369 7.592C194.753 7.61333 195.084 7.656 195.361 7.72L195.009 10.312C194.732 10.248 194.422 10.1947 194.081 10.152C193.761 10.1093 193.452 10.088 193.153 10.088C192.492 10.088 191.862 10.2267 191.265 10.504C190.668 10.7813 190.134 11.176 189.665 11.688C189.196 12.1787 188.822 12.776 188.545 13.48C188.289 14.184 188.161 14.9733 188.161 15.848V25H185.345V7.848H187.649L187.969 10.984H188.097C188.46 10.344 188.897 9.768 189.409 9.256C189.921 8.72267 190.508 8.30667 191.169 8.008C191.83 7.688 192.556 7.528 193.345 7.528ZM204.292 23.016C204.718 23.016 205.156 22.984 205.604 22.92C206.052 22.8347 206.414 22.7493 206.692 22.664V24.808C206.393 24.9573 205.966 25.0747 205.412 25.16C204.857 25.2667 204.324 25.32 203.812 25.32C202.916 25.32 202.084 25.1707 201.316 24.872C200.569 24.552 199.961 24.008 199.492 23.24C199.022 22.472 198.788 21.3947 198.788 20.008V10.024H196.356V8.68L198.82 7.56L199.94 3.912H201.604V7.848H206.564V10.024H201.604V19.944C201.604 20.9893 201.849 21.768 202.34 22.28C202.852 22.7707 203.502 23.016 204.292 23.016ZM216.75 7.528C218.222 7.528 219.481 7.848 220.526 8.488C221.593 9.128 222.404 10.0347 222.958 11.208C223.534 12.36 223.822 13.7147 223.822 15.272V16.968H212.078C212.121 18.9093 212.612 20.392 213.55 21.416C214.51 22.4187 215.844 22.92 217.55 22.92C218.638 22.92 219.598 22.824 220.43 22.632C221.284 22.4187 222.158 22.12 223.054 21.736V24.2C222.18 24.584 221.316 24.8613 220.462 25.032C219.609 25.224 218.596 25.32 217.422 25.32C215.801 25.32 214.361 24.9893 213.102 24.328C211.865 23.6667 210.894 22.6853 210.19 21.384C209.508 20.0613 209.166 18.4507 209.166 16.552C209.166 14.6747 209.476 13.064 210.094 11.72C210.734 10.376 211.62 9.34133 212.75 8.616C213.902 7.89067 215.236 7.528 216.75 7.528ZM216.718 9.832C215.374 9.832 214.308 10.2693 213.518 11.144C212.75 11.9973 212.292 13.192 212.142 14.728H220.878C220.878 13.7467 220.729 12.8933 220.43 12.168C220.132 11.4427 219.673 10.8773 219.054 10.472C218.457 10.0453 217.678 9.832 216.718 9.832ZM236.189 7.528C236.509 7.528 236.85 7.54933 237.213 7.592C237.597 7.61333 237.927 7.656 238.205 7.72L237.853 10.312C237.575 10.248 237.266 10.1947 236.925 10.152C236.605 10.1093 236.295 10.088 235.997 10.088C235.335 10.088 234.706 10.2267 234.109 10.504C233.511 10.7813 232.978 11.176 232.509 11.688C232.039 12.1787 231.666 12.776 231.389 13.48C231.133 14.184 231.005 14.9733 231.005 15.848V25H228.189V7.848H230.493L230.813 10.984H230.941C231.303 10.344 231.741 9.768 232.253 9.256C232.765 8.72267 233.351 8.30667 234.013 8.008C234.674 7.688 235.399 7.528 236.189 7.528Z" fill="#645CFF"/>
</g>
<path d="M11.3925 2.888L11.0183 3.81535L11.028 3.81928L11.0378 3.823L11.3925 2.888ZM14.1445 5.032L13.2954 5.5603L13.2954 5.5603L14.1445 5.032ZM14.3685 11.688L15.2437 12.1717L15.2437 12.1717L14.3685 11.688ZM12.6405 13.64L13.207 14.4641L13.2123 14.4604L12.6405 13.64ZM10.4645 14.76L10.1249 13.8194L8.97096 14.2361L9.61175 15.2823L10.4645 14.76ZM16.7365 25V26H18.5217L17.5893 24.4777L16.7365 25ZM13.3765 25L12.5139 25.5059L12.8037 26H13.3765V25ZM7.8405 15.56L8.70311 15.0541L8.41333 14.56H7.8405V15.56ZM3.2965 15.56V14.56H2.2965V15.56H3.2965ZM3.2965 25V26H4.2965V25H3.2965ZM0.4165 25H-0.5835V26H0.4165V25ZM0.4165 2.152V1.152H-0.5835V2.152H0.4165ZM3.2965 4.648V3.648H2.2965V4.648H3.2965ZM3.2965 13.128H2.2965V14.128H3.2965V13.128ZM9.7605 12.648L10.1362 13.5747L10.1469 13.5704L10.1574 13.5659L9.7605 12.648ZM11.4885 11.176L10.631 10.6615L10.6246 10.6722L10.6185 10.683L11.4885 11.176ZM11.4565 6.376L10.6153 6.91676L10.622 6.92721L10.629 6.9375L11.4565 6.376ZM9.6645 5.064L9.34081 6.01016L9.34081 6.01016L9.6645 5.064ZM6.7205 3.152C8.54357 3.152 9.96186 3.38906 11.0183 3.81535L11.7667 1.96065C10.3911 1.4056 8.69477 1.152 6.7205 1.152V3.152ZM11.0378 3.823C12.1065 4.22836 12.8328 4.81683 13.2954 5.5603L14.9936 4.5037C14.2615 3.32717 13.1531 2.4863 11.7472 1.953L11.0378 3.823ZM13.2954 5.5603C13.7698 6.32265 14.0405 7.33195 14.0405 8.648H16.0405C16.0405 7.06272 15.7139 5.66134 14.9936 4.5037L13.2954 5.5603ZM14.0405 8.648C14.0405 9.74607 13.8378 10.5809 13.4933 11.2043L15.2437 12.1717C15.7952 11.1738 16.0405 9.98192 16.0405 8.648H14.0405ZM13.4933 11.2043C13.1133 11.8918 12.6373 12.4233 12.0687 12.8196L13.2123 14.4604C14.0517 13.8754 14.7277 13.1055 15.2437 12.1717L13.4933 11.2043ZM12.074 12.816C11.4606 13.2376 10.8114 13.5715 10.1249 13.8194L10.8041 15.7006C11.6536 15.3938 12.4551 14.981 13.207 14.464L12.074 12.816ZM9.61175 15.2823L15.8837 25.5223L17.5893 24.4777L11.3173 14.2377L9.61175 15.2823ZM16.7365 24H13.3765V26H16.7365V24ZM14.2391 24.4941L8.70311 15.0541L6.97789 16.0659L12.5139 25.5059L14.2391 24.4941ZM7.8405 14.56H3.2965V16.56H7.8405V14.56ZM2.2965 15.56V25H4.2965V15.56H2.2965ZM3.2965 24H0.4165V26H3.2965V24ZM1.4165 25V2.152H-0.5835V25H1.4165ZM0.4165 3.152H6.7205V1.152H0.4165V3.152ZM6.5605 3.648H3.2965V5.648H6.5605V3.648ZM2.2965 4.648V13.128H4.2965V4.648H2.2965ZM3.2965 14.128H6.7205V12.128H3.2965V14.128ZM6.7205 14.128C8.03325 14.128 9.18642 13.9598 10.1362 13.5747L9.3848 11.7213C8.75592 11.9762 7.88242 12.128 6.7205 12.128V14.128ZM10.1574 13.5659C11.1114 13.1533 11.8712 12.5291 12.3585 11.669L10.6185 10.683C10.3805 11.1029 9.98823 11.46 9.36359 11.7301L10.1574 13.5659ZM12.346 11.6905C12.8464 10.8565 13.0645 9.86629 13.0645 8.776H11.0645C11.0645 9.60571 10.8986 10.2155 10.631 10.6615L12.346 11.6905ZM13.0645 8.776C13.0645 7.64848 12.8377 6.63049 12.284 5.8145L10.629 6.9375C10.886 7.31618 11.0645 7.89819 11.0645 8.776H13.0645ZM12.2977 5.83524C11.7681 5.01146 10.9666 4.45255 9.98819 4.11784L9.34081 6.01016C9.98375 6.23012 10.3769 6.54588 10.6153 6.91676L12.2977 5.83524ZM9.98819 4.11784C9.03677 3.79235 7.88255 3.648 6.5605 3.648V5.648C7.75578 5.648 8.67089 5.78098 9.34081 6.01016L9.98819 4.11784ZM40.6033 22.376L41.4208 22.952L41.4268 22.9433L40.6033 22.376ZM37.7553 24.552L37.3729 23.628L37.3672 23.6304L37.7553 24.552ZM30.9713 25.192L30.8608 26.1859L30.8638 26.1862L30.9713 25.192ZM28.8593 24.84L28.6016 25.8062L28.6167 25.8103L28.632 25.8138L28.8593 24.84ZM27.1633 24.232H26.1633V24.8622L26.7318 25.1341L27.1633 24.232ZM27.1633 21.48L27.5694 20.5662L26.1633 19.9412V21.48H27.1633ZM30.0113 22.408L29.773 23.3792L29.7772 23.3802L30.0113 22.408ZM36.4113 22.376L36.0488 21.444L36.0488 21.444L36.4113 22.376ZM38.1393 21.096L37.3171 20.5268L37.3171 20.5268L38.1393 21.096ZM38.2353 17.256L37.3873 17.786L37.3873 17.786L38.2353 17.256ZM36.5713 15.848L36.0674 16.7118L36.0814 16.72L36.0957 16.7277L36.5713 15.848ZM33.3393 14.44L32.9926 15.3781L33.0057 15.3827L33.3393 14.44ZM30.7473 13.288L30.2402 14.1499L30.255 14.1587L30.2702 14.1669L30.7473 13.288ZM27.8033 10.024L26.8576 10.3491L26.8621 10.3622L26.8669 10.3751L27.8033 10.024ZM28.3793 4.552L29.1889 5.13901L29.1957 5.12946L28.3793 4.552ZM30.9393 2.536L30.5496 1.61501L30.5432 1.61779L30.9393 2.536ZM38.2033 2.184L38.4223 1.20828L38.4223 1.20828L38.2033 2.184ZM41.0513 3.112L41.991 3.45374L42.3084 2.58111L41.4616 2.20008L41.0513 3.112ZM40.1553 5.576L39.7583 6.49386L40.7324 6.91506L41.095 5.91774L40.1553 5.576ZM37.5633 4.712L37.3154 5.68082L37.3207 5.68214L37.5633 4.712ZM30.8433 5.96L31.6809 6.50627L31.6861 6.49818L31.6912 6.49L30.8433 5.96ZM30.8433 9.608L31.6912 9.078L31.6912 9.078L30.8433 9.608ZM32.4113 10.984L31.9234 11.8569L31.9234 11.8569L32.4113 10.984ZM35.3553 12.296L35.0006 13.2311L35.0123 13.2354L35.3553 12.296ZM38.7473 13.896L38.2155 14.7429L38.2269 14.7501L38.2385 14.7569L38.7473 13.896ZM40.8593 15.912L39.9997 16.4231L40.0048 16.4316L40.01 16.4399L40.8593 15.912ZM40.5953 18.888C40.5953 20.0863 40.3075 21.0426 39.7797 21.8087L41.4268 22.9433C42.2217 21.7894 42.5953 20.4204 42.5953 18.888H40.5953ZM39.7858 21.8C39.2507 22.5595 38.4648 23.1762 37.3729 23.628L38.1376 25.476C39.5204 24.9038 40.6332 24.0698 41.4207 22.952L39.7858 21.8ZM37.3672 23.6304C36.3016 24.079 34.9995 24.32 33.4353 24.32V26.32C35.199 26.32 36.7769 26.049 38.1433 25.4736L37.3672 23.6304ZM33.4353 24.32C32.6152 24.32 31.8298 24.279 31.0787 24.1978L30.8638 26.1862C31.6913 26.2757 32.5487 26.32 33.4353 26.32V24.32ZM31.0817 24.1981C30.3464 24.1164 29.682 24.0051 29.0865 23.8662L28.632 25.8138C29.3165 25.9736 30.0601 26.0969 30.8608 26.1859L31.0817 24.1981ZM29.1169 23.8738C28.5243 23.7157 28.0191 23.5328 27.5947 23.3299L26.7318 25.1341C27.2888 25.4005 27.9142 25.6229 28.6016 25.8062L29.1169 23.8738ZM28.1633 24.232V21.48H26.1633V24.232H28.1633ZM26.7571 22.3938C27.5954 22.7664 28.605 23.0927 29.773 23.3792L30.2495 21.4368C29.1562 21.1686 28.2671 20.8763 27.5694 20.5662L26.7571 22.3938ZM29.7772 23.3802C31.0078 23.6765 32.2705 23.824 33.5633 23.824V21.824C32.424 21.824 31.3187 21.6942 30.2453 21.4358L29.7772 23.3802ZM33.5633 23.824C34.7749 23.824 35.8559 23.6649 36.7737 23.308L36.0488 21.444C35.4306 21.6844 34.613 21.824 33.5633 21.824V23.824ZM36.7737 23.308C37.6861 22.9532 38.4408 22.4172 38.9614 21.6652L37.3171 20.5268C37.0697 20.8841 36.6724 21.2015 36.0488 21.444L36.7737 23.308ZM38.9614 21.6652C39.4735 20.9256 39.7153 20.0714 39.7153 19.144H37.7153C37.7153 19.7099 37.573 20.1571 37.3171 20.5268L38.9614 21.6652ZM39.7153 19.144C39.7153 18.2542 39.5237 17.4307 39.0832 16.726L37.3873 17.786C37.5868 18.1053 37.7153 18.5405 37.7153 19.144H39.7153ZM39.0832 16.726C38.6374 16.0127 37.9197 15.4402 37.0468 14.9683L36.0957 16.7277C36.8014 17.1092 37.1931 17.4753 37.3873 17.786L39.0832 16.726ZM37.0751 14.9842C36.2294 14.4909 35.0857 13.9972 33.6728 13.4973L33.0057 15.3827C34.3662 15.8641 35.3771 16.3091 36.0674 16.7118L37.0751 14.9842ZM33.6859 13.502C32.7396 13.1523 31.9207 12.7872 31.2243 12.4091L30.2702 14.1669C31.0671 14.5995 31.9762 15.0024 32.9926 15.378L33.6859 13.502ZM31.2543 12.4261C30.6006 12.0415 30.0733 11.6211 29.6592 11.1709L28.1873 12.5251C28.7545 13.1416 29.4433 13.6811 30.2402 14.1499L31.2543 12.4261ZM29.6592 11.1709C29.2562 10.7329 28.9507 10.2358 28.7396 9.67288L26.8669 10.3751C27.1678 11.1776 27.609 11.8964 28.1873 12.5251L29.6592 11.1709ZM28.7489 9.69892C28.5577 9.14261 28.4513 8.46699 28.4513 7.656H26.4513C26.4513 8.63701 26.5795 9.54006 26.8576 10.3491L28.7489 9.69892ZM28.4513 7.656C28.4513 6.61724 28.7123 5.79628 29.1889 5.13897L27.5696 3.96503C26.8089 5.01438 26.4513 6.26276 26.4513 7.656H28.4513ZM29.1957 5.12946C29.6972 4.42044 30.3977 3.8587 31.3353 3.45421L30.5432 1.61779C29.3048 2.15197 28.2987 2.93423 27.5628 3.97453L29.1957 5.12946ZM31.3289 3.45697C32.2942 3.04857 33.4272 2.832 34.7473 2.832V0.831999C33.2086 0.831999 31.803 1.08476 30.5496 1.61503L31.3289 3.45697ZM34.7473 2.832C35.9447 2.832 37.022 2.9437 37.9842 3.15971L38.4223 1.20828C37.2939 0.954962 36.0672 0.831999 34.7473 0.831999V2.832ZM37.9842 3.15971C38.973 3.3817 39.8571 3.67122 40.6409 4.02392L41.4616 2.20008C40.5387 1.78478 39.5241 1.45563 38.4223 1.20828L37.9842 3.15971ZM40.1115 2.77026L39.2155 5.23426L41.095 5.91774L41.991 3.45374L40.1115 2.77026ZM40.5522 4.65814C39.7071 4.29273 38.7908 3.98811 37.8058 3.74186L37.3207 5.68214C38.213 5.90522 39.0247 6.1766 39.7583 6.49386L40.5522 4.65814ZM37.8111 3.7432C36.8081 3.48663 35.7646 3.36 34.6833 3.36V5.36C35.6072 5.36 36.4837 5.46803 37.3154 5.6808L37.8111 3.7432ZM34.6833 3.36C33.6347 3.36 32.6889 3.51036 31.8856 3.85844L32.6809 5.69355C33.1576 5.48697 33.8118 5.36 34.6833 5.36V3.36ZM31.8856 3.85844C31.0895 4.20346 30.4386 4.72059 29.9953 5.43L31.6912 6.49C31.8879 6.17541 32.197 5.90321 32.6809 5.69355L31.8856 3.85844ZM30.0056 5.41373C29.5664 6.08722 29.3633 6.85848 29.3633 7.688H31.3633C31.3633 7.19485 31.4801 6.81411 31.6809 6.50627L30.0056 5.41373ZM29.3633 7.688C29.3633 8.59297 29.5522 9.42912 29.9953 10.138L31.6912 9.078C31.4943 8.76288 31.3633 8.31903 31.3633 7.688H29.3633ZM29.9953 10.138C30.4318 10.8365 31.1037 11.3989 31.9234 11.8569L32.8991 10.1111C32.2681 9.75845 31.8947 9.40352 31.6912 9.078L29.9953 10.138ZM31.9234 11.8569C32.709 12.2959 33.7409 12.7532 35.0006 13.231L35.7099 11.361C34.495 10.9002 33.5642 10.4827 32.8991 10.1111L31.9234 11.8569ZM35.0123 13.2354C36.31 13.7091 37.3731 14.214 38.2155 14.7429L39.279 13.0491C38.2867 12.426 37.0885 11.8642 35.6982 11.3566L35.0123 13.2354ZM38.2385 14.7569C39.0598 15.2422 39.6309 15.8027 39.9997 16.4231L41.7188 15.4009C41.149 14.4426 40.312 13.6591 39.256 13.0351L38.2385 14.7569ZM40.01 16.4399C40.3777 17.0315 40.5953 17.8274 40.5953 18.888H42.5953C42.5953 17.5592 42.3222 16.3712 41.7085 15.3841L40.01 16.4399ZM48.6298 7.848H49.6298V6.848H48.6298V7.848ZM48.6298 25V26H49.6298V25H48.6298ZM45.8138 25H44.8138V26H45.8138V25ZM45.8138 7.848V6.848H44.8138V7.848H45.8138ZM48.3738 1.864L47.6914 2.59505L47.7165 2.61847L47.7432 2.64011L48.3738 1.864ZM48.3738 4.552L47.7152 3.79942L47.7032 3.80999L47.6914 3.82094L48.3738 4.552ZM46.0698 4.552L46.7521 3.82094L46.7521 3.82094L46.0698 4.552ZM46.0698 1.864L46.7247 2.61969L46.7386 2.60762L46.7521 2.59505L46.0698 1.864ZM47.6298 7.848V25H49.6298V7.848H47.6298ZM48.6298 24H45.8138V26H48.6298V24ZM46.8138 25V7.848H44.8138V25H46.8138ZM45.8138 8.848H48.6298V6.848H45.8138V8.848ZM47.2538 2.416C47.4199 2.416 47.5513 2.46425 47.6914 2.59505L49.0561 1.13294C48.5562 0.666412 47.9409 0.415998 47.2538 0.415998V2.416ZM47.7432 2.64011C47.7666 2.6592 47.8858 2.76208 47.8858 3.208H49.8858C49.8858 2.41658 49.6635 1.62347 49.0043 1.08788L47.7432 2.64011ZM47.8858 3.208C47.8858 3.6139 47.776 3.7463 47.7152 3.79942L49.0323 5.30457C49.6542 4.76036 49.8858 3.99677 49.8858 3.208H47.8858ZM47.6914 3.82094C47.5513 3.95175 47.4199 4 47.2538 4V6C47.9409 6 48.5562 5.74958 49.0561 5.28305L47.6914 3.82094ZM47.2538 4C47.0177 4 46.8728 3.93359 46.7521 3.82094L45.3874 5.28305C45.9067 5.76774 46.5512 6 47.2538 6V4ZM46.7521 3.82094C46.7003 3.77262 46.5898 3.63284 46.5898 3.208H44.5898C44.5898 3.97783 44.7992 4.73405 45.3874 5.28305L46.7521 3.82094ZM46.5898 3.208C46.5898 2.74275 46.7094 2.63291 46.7247 2.61969L45.4148 1.10831C44.7901 1.64975 44.5898 2.43591 44.5898 3.208H46.5898ZM46.7521 2.59505C46.8728 2.48241 47.0177 2.416 47.2538 2.416V0.415998C46.5512 0.415998 45.9067 0.648253 45.3874 1.13294L46.7521 2.59505ZM77.2318 9.032L76.5094 9.72361L76.5169 9.73129L77.2318 9.032ZM78.6718 25V26H79.6718V25H78.6718ZM75.8878 25H74.8878V26H75.8878V25ZM75.0238 10.92L74.2476 11.5506L74.2535 11.5578L74.2595 11.5649L75.0238 10.92ZM68.8158 11.336L68.0179 10.7332L68.0136 10.7389L68.0093 10.7446L68.8158 11.336ZM67.7598 25V26H68.7598V25H67.7598ZM64.9758 25H63.9758V26H64.9758V25ZM64.5918 11.72L63.6677 12.1024L63.6726 12.1139L64.5918 11.72ZM63.4398 10.344L63.9436 9.48022L63.9436 9.48022L63.4398 10.344ZM58.7358 10.632L59.3145 11.4475L59.3231 11.4414L59.3316 11.4351L58.7358 10.632ZM57.2958 12.712L56.3449 12.4024L56.3416 12.4125L56.3385 12.4226L57.2958 12.712ZM56.8798 25V26H57.8798V25H56.8798ZM54.0638 25H53.0638V26H54.0638V25ZM54.0638 7.848V6.848H53.0638V7.848H54.0638ZM56.3358 7.848L57.3203 7.67268L57.1734 6.848H56.3358V7.848ZM56.7518 10.184L55.7672 10.3593L55.9141 11.184H56.7518V10.184ZM56.9118 10.184V11.184H57.4745L57.7665 10.703L56.9118 10.184ZM58.2238 8.712L58.8238 9.51202L58.8288 9.50816L58.2238 8.712ZM65.2638 8.232L64.7909 9.1132L64.7997 9.11783L65.2638 8.232ZM67.2158 10.408L66.2915 10.7898L66.5468 11.408H67.2158V10.408ZM67.3758 10.408V11.408H67.9483L68.2382 10.9142L67.3758 10.408ZM69.7118 8.232L69.2878 7.32628L69.2803 7.32986L69.7118 8.232ZM72.8798 8.528C74.6594 8.528 75.8031 8.98588 76.5094 9.72357L77.9541 8.34043C76.7404 7.07279 74.9827 6.528 72.8798 6.528V8.528ZM76.5169 9.73129C77.2092 10.4389 77.6718 11.7209 77.6718 13.832H79.6718C79.6718 11.5058 79.1743 9.58775 77.9466 8.33271L76.5169 9.73129ZM77.6718 13.832V25H79.6718V13.832H77.6718ZM78.6718 24H75.8878V26H78.6718V24ZM76.8878 25V13.96H74.8878V25H76.8878ZM76.8878 13.96C76.8878 12.4947 76.5767 11.2099 75.788 10.2751L74.2595 11.5649C74.6228 11.9955 74.8878 12.7373 74.8878 13.96H76.8878ZM75.7999 10.2894C74.9933 9.29666 73.781 8.896 72.3998 8.896V10.896C73.4078 10.896 73.9449 11.178 74.2476 11.5506L75.7999 10.2894ZM72.3998 8.896C70.5505 8.896 68.9981 9.43587 68.0179 10.7332L69.6136 11.9388C70.0841 11.3161 70.921 10.896 72.3998 10.896V8.896ZM68.0093 10.7446C67.128 11.9465 66.7598 13.5886 66.7598 15.528H68.7598C68.7598 13.7981 69.0955 12.6455 69.6222 11.9274L68.0093 10.7446ZM66.7598 15.528V25H68.7598V15.528H66.7598ZM67.7598 24H64.9758V26H67.7598V24ZM65.9758 25V13.96H63.9758V25H65.9758ZM65.9758 13.96C65.9758 12.9766 65.8364 12.0855 65.5109 11.3261L63.6726 12.1139C63.8591 12.5492 63.9758 13.1514 63.9758 13.96H65.9758ZM65.5158 11.3376C65.1875 10.5444 64.6687 9.90319 63.9436 9.48022L62.9359 11.2078C63.2348 11.3821 63.484 11.6583 63.6677 12.1024L65.5158 11.3376ZM63.9436 9.48022C63.2325 9.06542 62.381 8.896 61.4558 8.896V10.896C62.1518 10.896 62.623 11.0252 62.9359 11.2078L63.9436 9.48022ZM61.4558 8.896C60.1726 8.896 59.0303 9.16827 58.1399 9.8289L59.3316 11.4351C59.7638 11.1144 60.4349 10.896 61.4558 10.896V8.896ZM58.157 9.81649C57.2891 10.4324 56.697 11.3207 56.3449 12.4024L58.2466 13.0216C58.4918 12.2686 58.8597 11.7703 59.3145 11.4475L58.157 9.81649ZM56.3385 12.4226C56.024 13.4631 55.8798 14.6981 55.8798 16.104H57.8798C57.8798 14.8219 58.0128 13.7956 58.253 13.0014L56.3385 12.4226ZM55.8798 16.104V25H57.8798V16.104H55.8798ZM56.8798 24H54.0638V26H56.8798V24ZM55.0638 25V7.848H53.0638V25H55.0638ZM54.0638 8.848H56.3358V6.848H54.0638V8.848ZM55.3512 8.02332L55.7672 10.3593L57.7363 10.0087L57.3203 7.67268L55.3512 8.02332ZM56.7518 11.184H56.9118V9.184H56.7518V11.184ZM57.7665 10.703C58.0691 10.2047 58.4228 9.81268 58.8237 9.512L57.6238 7.912C57.0007 8.37932 56.4797 8.96868 56.057 9.66502L57.7665 10.703ZM58.8288 9.50816C59.267 9.17512 59.7461 8.93131 60.2711 8.77383L59.6964 6.85817C58.9414 7.08469 58.2471 7.43821 57.6187 7.91584L58.8288 9.50816ZM60.2711 8.77383C60.8159 8.6104 61.3803 8.528 61.9678 8.528V6.528C61.1899 6.528 60.4316 6.6376 59.6964 6.85817L60.2711 8.77383ZM61.9678 8.528C63.1782 8.528 64.1019 8.74346 64.7909 9.11316L65.7366 7.35084C64.6762 6.78188 63.4027 6.528 61.9678 6.528V8.528ZM64.7997 9.11783C65.477 9.4726 65.9709 10.0135 66.2915 10.7898L68.14 10.0262C67.65 8.83978 66.8425 7.93007 65.7278 7.34617L64.7997 9.11783ZM67.2158 11.408H67.3758V9.408H67.2158V11.408ZM68.2382 10.9142C68.7181 10.0965 69.3504 9.51332 70.1432 9.13413L69.2803 7.32986C68.1105 7.88934 67.1854 8.75684 66.5133 9.9018L68.2382 10.9142ZM70.1357 9.13769C71.0054 8.7306 71.9166 8.528 72.8798 8.528V6.528C71.6242 6.528 70.4235 6.79473 69.2878 7.32631L70.1357 9.13769ZM97.218 9.736L96.4634 10.3922L96.4688 10.3983L97.218 9.736ZM98.274 21.32L97.3602 20.9139L97.3572 20.9207L98.274 21.32ZM95.81 24.328L96.3446 25.1731L96.3491 25.1703L95.81 24.328ZM89.762 24.968L89.4369 25.9137L89.4369 25.9137L89.762 24.968ZM88.002 24.072L87.3688 24.846L87.3878 24.8615L87.4076 24.8762L88.002 24.072ZM86.786 22.824L87.5814 22.218L87.2813 21.824H86.786V22.824ZM86.594 22.824V21.824H85.4695L85.6008 22.9408L86.594 22.824ZM86.722 24.2L85.7249 24.2767L85.7249 24.2767L86.722 24.2ZM86.786 32.68V33.68H87.786V32.68H86.786ZM83.97 32.68H82.97V33.68H83.97V32.68ZM83.97 7.848V6.848H82.97V7.848H83.97ZM86.274 7.848L87.2608 7.68579L87.123 6.848H86.274V7.848ZM86.658 10.184L85.6712 10.3462L85.809 11.184H86.658V10.184ZM86.786 10.184V11.184H87.3085L87.6069 10.7551L86.786 10.184ZM88.002 8.84L87.3651 8.06904L87.3567 8.07602L87.3484 8.08318L88.002 8.84ZM89.73 7.88L89.4049 6.93427L89.3956 6.93757L89.73 7.88ZM88.834 10.568L89.3523 11.4232L89.3617 11.4175L89.3709 11.4117L88.834 10.568ZM86.786 15.848L85.7861 15.8321L85.786 15.8401V15.848H86.786ZM87.234 19.976L86.2773 20.2672L86.2773 20.2672L87.234 19.976ZM88.738 22.216L88.1498 23.0248L88.1613 23.033L88.738 22.216ZM94.242 22.12L93.5971 21.3557L93.5911 21.3608L93.5852 21.3659L94.242 22.12ZM95.746 19.784L94.7993 19.4617L94.7953 19.474L95.746 19.784ZM95.106 11.656L94.2623 12.1929L94.2693 12.2037L95.106 11.656ZM92.13 8.528C93.9796 8.528 95.3904 9.15819 96.4634 10.3922L97.9726 9.07982C96.4856 7.36981 94.5044 6.528 92.13 6.528V8.528ZM96.4688 10.3983C97.5435 11.614 98.17 13.5503 98.17 16.392H100.17C100.17 13.303 99.4952 10.802 97.9672 9.07366L96.4688 10.3983ZM98.17 16.392C98.17 18.236 97.8856 19.7316 97.3602 20.9139L99.1878 21.7261C99.857 20.2204 100.17 18.4306 100.17 16.392H98.17ZM97.3572 20.9207C96.849 22.0876 96.1481 22.9244 95.2709 23.4857L96.3491 25.1703C97.6053 24.3663 98.547 23.1977 99.1908 21.7193L97.3572 20.9207ZM95.2754 23.4829C94.4136 24.0281 93.3681 24.32 92.098 24.32V26.32C93.6866 26.32 95.1157 25.9506 96.3446 25.1731L95.2754 23.4829ZM92.098 24.32C91.3113 24.32 90.6457 24.2143 90.0871 24.0223L89.4369 25.9137C90.2437 26.191 91.1354 26.32 92.098 26.32V24.32ZM90.0871 24.0223C89.4837 23.8149 88.9916 23.5599 88.5964 23.2678L87.4076 24.8762C87.9937 25.3094 88.6749 25.6518 89.4369 25.9137L90.0871 24.0223ZM88.6352 23.298C88.2217 22.9597 87.872 22.5993 87.5814 22.218L85.9906 23.43C86.3827 23.9447 86.8436 24.4163 87.3688 24.846L88.6352 23.298ZM86.786 21.824H86.594V23.824H86.786V21.824ZM85.6008 22.9408C85.6414 23.2852 85.6828 23.7293 85.7249 24.2767L87.7191 24.1233C87.6758 23.5614 87.632 23.0881 87.5872 22.7072L85.6008 22.9408ZM85.7249 24.2767C85.7663 24.8145 85.786 25.2677 85.786 25.64H87.786C87.786 25.2017 87.763 24.6948 87.7191 24.1233L85.7249 24.2767ZM85.786 25.64V32.68H87.786V25.64H85.786ZM86.786 31.68H83.97V33.68H86.786V31.68ZM84.97 32.68V7.848H82.97V32.68H84.97ZM83.97 8.848H86.274V6.848H83.97V8.848ZM85.2872 8.01021L85.6712 10.3462L87.6448 10.0218L87.2608 7.68579L85.2872 8.01021ZM86.658 11.184H86.786V9.184H86.658V11.184ZM87.6069 10.7551C87.8987 10.3356 88.2472 9.94953 88.6556 9.59682L87.3484 8.08318C86.8181 8.54113 86.356 9.05106 85.9651 9.61293L87.6069 10.7551ZM88.6389 9.61096C89.0307 9.28725 89.5019 9.02203 90.0644 8.82243L89.3956 6.93757C88.6355 7.2073 87.9546 7.58208 87.3651 8.06904L88.6389 9.61096ZM90.0551 8.82569C90.6092 8.63521 91.2948 8.528 92.13 8.528V6.528C91.1306 6.528 90.2161 6.65546 89.4049 6.93431L90.0551 8.82569ZM91.618 8.896C90.3455 8.896 89.2117 9.14233 88.2971 9.72434L89.3709 11.4117C89.8643 11.0977 90.5865 10.896 91.618 10.896V8.896ZM88.3157 9.7128C87.392 10.2726 86.7461 11.118 86.3589 12.1764L88.2371 12.8636C88.4899 12.1727 88.868 11.7167 89.3523 11.4232L88.3157 9.7128ZM86.3589 12.1764C85.9875 13.1915 85.8085 14.4215 85.7861 15.8321L87.7859 15.8639C87.8061 14.5865 87.9685 13.5978 88.2371 12.8636L86.3589 12.1764ZM85.786 15.848V16.392H87.786V15.848H85.786ZM85.786 16.392C85.786 17.8647 85.9415 19.1637 86.2773 20.2672L88.1907 19.6848C87.9292 18.8257 87.786 17.7353 87.786 16.392H85.786ZM86.2773 20.2672C86.6276 21.4181 87.2401 22.3631 88.1498 23.0247L89.3262 21.4073C88.8279 21.0449 88.4377 20.4966 88.1907 19.6848L86.2773 20.2672ZM88.1613 23.033C89.11 23.7027 90.3171 23.984 91.682 23.984V21.984C90.5723 21.984 89.8166 21.7533 89.3147 21.399L88.1613 23.033ZM91.682 23.984C92.9201 23.984 94.0217 23.638 94.8988 22.8741L93.5852 21.3659C93.1396 21.754 92.5346 21.984 91.682 21.984V23.984ZM94.8869 22.8843C95.7328 22.1706 96.3282 21.2242 96.6967 20.094L94.7953 19.474C94.5238 20.3064 94.1166 20.9174 93.5971 21.3557L94.8869 22.8843ZM96.6927 20.1063C97.0758 18.9808 97.258 17.7275 97.258 16.36H95.258C95.258 17.5525 95.0989 18.5819 94.7994 19.4617L96.6927 20.1063ZM97.258 16.36C97.258 14.2775 96.8519 12.4974 95.9427 11.1083L94.2693 12.2037C94.8961 13.1613 95.258 14.5171 95.258 16.36H97.258ZM95.9497 11.1191C94.992 9.6142 93.4841 8.896 91.618 8.896V10.896C92.9092 10.896 93.7267 11.3511 94.2623 12.1929L95.9497 11.1191ZM106.474 25V26H107.474V25H106.474ZM103.658 25H102.658V26H103.658V25ZM103.658 0.679998V-0.320002H102.658V0.679998H103.658ZM106.474 0.679998H107.474V-0.320002H106.474V0.679998ZM106.474 24H103.658V26H106.474V24ZM104.658 25V0.679998H102.658V25H104.658ZM103.658 1.68H106.474V-0.320002H103.658V1.68ZM105.474 0.679998V25H107.474V0.679998H105.474ZM122.308 8.488L121.785 9.34088L121.793 9.34549L122.308 8.488ZM124.74 11.208L123.835 11.6354L123.84 11.6453L123.845 11.6552L124.74 11.208ZM125.604 16.968V17.968H126.604V16.968H125.604ZM113.86 16.968V15.968H112.837L112.86 16.99L113.86 16.968ZM115.332 21.416L114.594 22.0917L114.602 22.0997L114.609 22.1076L115.332 21.416ZM122.212 22.632L122.436 23.6064L122.445 23.6043L122.454 23.6021L122.212 22.632ZM124.836 21.736H125.836V20.2195L124.442 20.8169L124.836 21.736ZM124.836 24.2L125.237 25.1156L125.836 24.8531V24.2H124.836ZM122.244 25.032L122.047 24.0514L122.036 24.0538L122.024 24.0564L122.244 25.032ZM114.884 24.328L114.412 25.21L114.418 25.2132L114.884 24.328ZM111.972 21.384L111.083 21.8426L111.087 21.8513L111.092 21.8598L111.972 21.384ZM111.876 11.72L110.973 11.29L110.967 11.3019L111.876 11.72ZM114.532 8.616L113.999 7.76974L113.992 7.77431L114.532 8.616ZM115.3 11.144L114.557 10.474L114.556 10.475L115.3 11.144ZM113.924 14.728L112.928 14.6312L112.822 15.728H113.924V14.728ZM122.66 14.728V15.728H123.66V14.728H122.66ZM122.212 12.168L121.287 12.5487L121.287 12.5487L122.212 12.168ZM120.836 10.472L120.254 11.2857L120.271 11.2974L120.287 11.3085L120.836 10.472ZM118.532 8.528C119.856 8.528 120.926 8.81483 121.785 9.34085L122.83 7.63515C121.598 6.88117 120.151 6.528 118.532 6.528V8.528ZM121.793 9.34549C122.683 9.87922 123.361 10.6326 123.835 11.6354L125.644 10.7806C125.008 9.43674 124.066 8.37678 122.822 7.63051L121.793 9.34549ZM123.845 11.6552C124.339 12.6423 124.604 13.8379 124.604 15.272H126.604C126.604 13.5915 126.292 12.0777 125.634 10.7608L123.845 11.6552ZM124.604 15.272V16.968H126.604V15.272H124.604ZM125.604 15.968H113.86V17.968H125.604V15.968ZM112.86 16.99C112.906 19.0777 113.437 20.8288 114.594 22.0917L116.069 20.7403C115.349 19.9552 114.899 18.7409 114.859 16.946L112.86 16.99ZM114.609 22.1076C115.8 23.3509 117.419 23.92 119.332 23.92V21.92C117.831 21.92 116.783 21.4865 116.054 20.7244L114.609 22.1076ZM119.332 23.92C120.476 23.92 121.514 23.8193 122.436 23.6064L121.987 21.6576C121.245 21.8287 120.363 21.92 119.332 21.92V23.92ZM122.454 23.6021C123.364 23.3746 124.29 23.0579 125.229 22.6551L124.442 20.8169C123.589 21.1821 122.765 21.4628 121.969 21.6619L122.454 23.6021ZM123.836 21.736V24.2H125.836V21.736H123.836ZM124.434 23.2844C123.619 23.6421 122.823 23.8962 122.047 24.0514L122.44 26.0126C123.37 25.8265 124.303 25.5259 125.237 25.1156L124.434 23.2844ZM122.024 24.0564C121.262 24.2278 120.326 24.32 119.204 24.32V26.32C120.427 26.32 121.518 26.2202 122.463 26.0076L122.024 24.0564ZM119.204 24.32C117.721 24.32 116.445 24.0187 115.349 23.4428L114.418 25.2132C115.84 25.9599 117.443 26.32 119.204 26.32V24.32ZM115.355 23.4461C114.3 22.8823 113.467 22.047 112.851 20.9082L111.092 21.8598C111.884 23.3237 112.992 24.451 114.412 25.2099L115.355 23.4461ZM112.86 20.9254C112.268 19.7782 111.948 18.3339 111.948 16.552H109.948C109.948 18.5675 110.31 20.3445 111.083 21.8426L112.86 20.9254ZM111.948 16.552C111.948 14.7815 112.24 13.3207 112.784 12.1381L110.967 11.3019C110.274 12.8073 109.948 14.5678 109.948 16.552H111.948ZM112.778 12.1499C113.347 10.9556 114.114 10.0716 115.071 9.45769L113.992 7.77431C112.687 8.61104 111.684 9.79645 110.973 11.2901L112.778 12.1499ZM115.064 9.46223C116.039 8.84843 117.183 8.528 118.532 8.528V6.528C116.85 6.528 115.328 6.9329 113.999 7.76977L115.064 9.46223ZM118.5 8.832C116.917 8.832 115.564 9.35865 114.557 10.474L116.042 11.814C116.614 11.18 117.394 10.832 118.5 10.832V8.832ZM114.556 10.475C113.603 11.5339 113.091 12.9549 112.928 14.6312L114.919 14.8248C115.054 13.4291 115.46 12.4607 116.043 11.813L114.556 10.475ZM113.924 15.728H122.66V13.728H113.924V15.728ZM123.66 14.728C123.66 13.6477 123.495 12.6595 123.136 11.7872L121.287 12.5487C121.525 13.1271 121.66 13.8456 121.66 14.728H123.66ZM123.136 11.7872C122.766 10.8874 122.181 10.1582 121.384 9.63554L120.287 11.3085C120.727 11.5965 121.06 11.9979 121.287 12.5487L123.136 11.7872ZM121.417 9.65827C120.604 9.07802 119.604 8.832 118.5 8.832V10.832C119.315 10.832 119.872 11.0126 120.254 11.2857L121.417 9.65827ZM150.635 22.376L151.452 22.952L151.458 22.9433L150.635 22.376ZM147.787 24.552L147.404 23.628L147.398 23.6304L147.787 24.552ZM141.003 25.192L140.892 26.1859L140.895 26.1862L141.003 25.192ZM138.891 24.84L138.633 25.8062L138.648 25.8103L138.663 25.8138L138.891 24.84ZM137.195 24.232H136.195V24.8622L136.763 25.1341L137.195 24.232ZM137.195 21.48L137.601 20.5662L136.195 19.9412V21.48H137.195ZM140.043 22.408L139.804 23.3792L139.808 23.3802L140.043 22.408ZM146.443 22.376L146.08 21.444L146.08 21.444L146.443 22.376ZM148.171 21.096L147.348 20.5268L147.348 20.5268L148.171 21.096ZM148.267 17.256L147.419 17.786L147.419 17.786L148.267 17.256ZM146.603 15.848L146.099 16.7118L146.113 16.72L146.127 16.7277L146.603 15.848ZM143.371 14.44L143.024 15.3781L143.037 15.3827L143.371 14.44ZM140.779 13.288L140.271 14.1499L140.286 14.1587L140.301 14.1669L140.779 13.288ZM137.835 10.024L136.889 10.3491L136.893 10.3622L136.898 10.3751L137.835 10.024ZM138.411 4.552L139.22 5.13901L139.227 5.12946L138.411 4.552ZM140.971 2.536L140.581 1.61501L140.574 1.61779L140.971 2.536ZM148.235 2.184L148.454 1.20828L148.454 1.20828L148.235 2.184ZM151.083 3.112L152.022 3.45374L152.34 2.58111L151.493 2.20008L151.083 3.112ZM150.187 5.576L149.79 6.49386L150.764 6.91506L151.126 5.91774L150.187 5.576ZM147.595 4.712L147.347 5.68082L147.352 5.68214L147.595 4.712ZM140.875 5.96L141.712 6.50627L141.717 6.49818L141.722 6.49L140.875 5.96ZM140.875 9.608L141.722 9.078L141.722 9.078L140.875 9.608ZM142.443 10.984L141.955 11.8569L141.955 11.8569L142.443 10.984ZM145.387 12.296L145.032 13.2311L145.044 13.2354L145.387 12.296ZM148.779 13.896L148.247 14.7429L148.258 14.7501L148.27 14.7569L148.779 13.896ZM150.891 15.912L150.031 16.4231L150.036 16.4316L150.041 16.4399L150.891 15.912ZM150.627 18.888C150.627 20.0863 150.339 21.0426 149.811 21.8087L151.458 22.9433C152.253 21.7894 152.627 20.4204 152.627 18.888H150.627ZM149.817 21.8C149.282 22.5595 148.496 23.1762 147.404 23.628L148.169 25.476C149.552 24.9038 150.664 24.0698 151.452 22.952L149.817 21.8ZM147.398 23.6304C146.333 24.079 145.031 24.32 143.467 24.32V26.32C145.23 26.32 146.808 26.049 148.175 25.4736L147.398 23.6304ZM143.467 24.32C142.646 24.32 141.861 24.279 141.11 24.1978L140.895 26.1862C141.723 26.2757 142.58 26.32 143.467 26.32V24.32ZM141.113 24.1981C140.378 24.1164 139.713 24.0051 139.118 23.8662L138.663 25.8138C139.348 25.9736 140.091 26.0969 140.892 26.1859L141.113 24.1981ZM139.148 23.8738C138.556 23.7157 138.05 23.5328 137.626 23.3299L136.763 25.1341C137.32 25.4005 137.945 25.6229 138.633 25.8062L139.148 23.8738ZM138.195 24.232V21.48H136.195V24.232H138.195ZM136.788 22.3938C137.627 22.7664 138.636 23.0927 139.804 23.3792L140.281 21.4368C139.187 21.1686 138.298 20.8763 137.601 20.5662L136.788 22.3938ZM139.808 23.3802C141.039 23.6765 142.302 23.824 143.595 23.824V21.824C142.455 21.824 141.35 21.6942 140.277 21.4358L139.808 23.3802ZM143.595 23.824C144.806 23.824 145.887 23.6649 146.805 23.308L146.08 21.444C145.462 21.6844 144.644 21.824 143.595 21.824V23.824ZM146.805 23.308C147.717 22.9532 148.472 22.4172 148.993 21.6652L147.348 20.5268C147.101 20.8841 146.704 21.2015 146.08 21.444L146.805 23.308ZM148.993 21.6652C149.505 20.9256 149.747 20.0714 149.747 19.144H147.747C147.747 19.7099 147.604 20.1571 147.348 20.5268L148.993 21.6652ZM149.747 19.144C149.747 18.2542 149.555 17.4307 149.114 16.726L147.419 17.786C147.618 18.1053 147.747 18.5405 147.747 19.144H149.747ZM149.114 16.726C148.669 16.0127 147.951 15.4402 147.078 14.9683L146.127 16.7277C146.833 17.1092 147.224 17.4753 147.419 17.786L149.114 16.726ZM147.106 14.9842C146.261 14.4909 145.117 13.9972 143.704 13.4973L143.037 15.3827C144.397 15.8641 145.408 16.3091 146.099 16.7118L147.106 14.9842ZM143.717 13.502C142.771 13.1523 141.952 12.7872 141.256 12.4091L140.301 14.1669C141.098 14.5995 142.007 15.0024 143.024 15.378L143.717 13.502ZM141.286 12.4261C140.632 12.0415 140.105 11.6211 139.69 11.1709L138.219 12.5251C138.786 13.1416 139.475 13.6811 140.271 14.1499L141.286 12.4261ZM139.69 11.1709C139.287 10.7329 138.982 10.2358 138.771 9.67288L136.898 10.3751C137.199 11.1776 137.64 11.8964 138.219 12.5251L139.69 11.1709ZM138.78 9.69892C138.589 9.14261 138.483 8.46699 138.483 7.656H136.483C136.483 8.63701 136.611 9.54006 136.889 10.3491L138.78 9.69892ZM138.483 7.656C138.483 6.61724 138.744 5.79628 139.22 5.13897L137.601 3.96503C136.84 5.01438 136.483 6.26276 136.483 7.656H138.483ZM139.227 5.12946C139.728 4.42044 140.429 3.8587 141.367 3.45421L140.574 1.61779C139.336 2.15197 138.33 2.93423 137.594 3.97453L139.227 5.12946ZM141.36 3.45697C142.325 3.04857 143.458 2.832 144.779 2.832V0.831999C143.24 0.831999 141.834 1.08476 140.581 1.61503L141.36 3.45697ZM144.779 2.832C145.976 2.832 147.053 2.9437 148.015 3.15971L148.454 1.20828C147.325 0.954962 146.098 0.831999 144.779 0.831999V2.832ZM148.015 3.15971C149.004 3.3817 149.888 3.67122 150.672 4.02392L151.493 2.20008C150.57 1.78478 149.555 1.45563 148.454 1.20828L148.015 3.15971ZM150.143 2.77026L149.247 5.23426L151.126 5.91774L152.022 3.45374L150.143 2.77026ZM150.583 4.65814C149.738 4.29273 148.822 3.98811 147.837 3.74186L147.352 5.68214C148.244 5.90522 149.056 6.1766 149.79 6.49386L150.583 4.65814ZM147.842 3.7432C146.839 3.48663 145.796 3.36 144.715 3.36V5.36C145.638 5.36 146.515 5.46803 147.347 5.6808L147.842 3.7432ZM144.715 3.36C143.666 3.36 142.72 3.51036 141.917 3.85844L142.712 5.69355C143.189 5.48697 143.843 5.36 144.715 5.36V3.36ZM141.917 3.85844C141.121 4.20346 140.47 4.72059 140.027 5.43L141.722 6.49C141.919 6.17541 142.228 5.90321 142.712 5.69355L141.917 3.85844ZM140.037 5.41373C139.598 6.08722 139.395 6.85848 139.395 7.688H141.395C141.395 7.19485 141.511 6.81411 141.712 6.50627L140.037 5.41373ZM139.395 7.688C139.395 8.59297 139.583 9.42912 140.027 10.138L141.722 9.078C141.526 8.76288 141.395 8.31903 141.395 7.688H139.395ZM140.027 10.138C140.463 10.8365 141.135 11.3989 141.955 11.8569L142.93 10.1111C142.299 9.75845 141.926 9.40352 141.722 9.078L140.027 10.138ZM141.955 11.8569C142.74 12.2959 143.772 12.7532 145.032 13.231L145.741 11.361C144.526 10.9002 143.595 10.4827 142.93 10.1111L141.955 11.8569ZM145.044 13.2354C146.341 13.7091 147.404 14.214 148.247 14.7429L149.31 13.0491C148.318 12.426 147.12 11.8642 145.729 11.3566L145.044 13.2354ZM148.27 14.7569C149.091 15.2422 149.662 15.8027 150.031 16.4231L151.75 15.4009C151.18 14.4426 150.343 13.6591 149.287 13.0351L148.27 14.7569ZM150.041 16.4399C150.409 17.0315 150.627 17.8274 150.627 18.888H152.627C152.627 17.5592 152.353 16.3712 151.74 15.3841L150.041 16.4399ZM162.885 22.92L163.026 23.9099L163.049 23.9067L163.072 23.9023L162.885 22.92ZM163.973 22.664H164.973V21.31L163.679 21.7082L163.973 22.664ZM163.973 24.808L164.42 25.7024L164.973 25.426V24.808H163.973ZM162.693 25.16L162.541 24.1716L162.522 24.1745L162.504 24.178L162.693 25.16ZM158.597 24.872L158.203 25.7911L158.219 25.7978L158.235 25.804L158.597 24.872ZM156.773 23.24L155.92 23.7614L156.773 23.24ZM156.069 10.024H157.069V9.024H156.069V10.024ZM153.637 10.024H152.637V11.024H153.637V10.024ZM153.637 8.68L153.223 7.76963L152.637 8.03608V8.68H153.637ZM156.101 7.56L156.515 8.47037L156.925 8.28401L157.057 7.8535L156.101 7.56ZM157.221 3.912V2.912H156.482L156.265 3.6185L157.221 3.912ZM158.885 3.912H159.885V2.912H158.885V3.912ZM158.885 7.848H157.885V8.848H158.885V7.848ZM163.845 7.848H164.845V6.848H163.845V7.848ZM163.845 10.024V11.024H164.845V10.024H163.845ZM158.885 10.024V9.024H157.885V10.024H158.885ZM159.621 22.28L158.899 22.9719L158.914 22.9873L158.929 23.002L159.621 22.28ZM161.573 24.016C162.05 24.016 162.534 23.9802 163.026 23.9099L162.744 21.9301C162.34 21.9878 161.95 22.016 161.573 22.016V24.016ZM163.072 23.9023C163.538 23.8135 163.941 23.7202 164.267 23.6198L163.679 21.7082C163.451 21.7785 163.128 21.8558 162.698 21.9377L163.072 23.9023ZM162.973 22.664V24.808H164.973V22.664H162.973ZM163.526 23.9136C163.362 23.9955 163.053 24.0929 162.541 24.1716L162.845 26.1484C163.443 26.0564 163.987 25.9192 164.42 25.7024L163.526 23.9136ZM162.504 24.178C162.005 24.2739 161.536 24.32 161.093 24.32V26.32C161.674 26.32 162.271 26.2594 162.882 26.142L162.504 24.178ZM161.093 24.32C160.31 24.32 159.602 24.1899 158.959 23.94L158.235 25.804C159.128 26.1514 160.084 26.32 161.093 26.32V24.32ZM158.991 23.9529C158.455 23.7233 158 23.3295 157.626 22.7185L155.92 23.7614C156.485 24.6865 157.245 25.3807 158.203 25.7911L158.991 23.9529ZM157.626 22.7185C157.291 22.1707 157.069 21.3022 157.069 20.008H155.069C155.069 21.4871 155.316 22.7733 155.92 23.7614L157.626 22.7185ZM157.069 20.008V10.024H155.069V20.008H157.069ZM156.069 9.024H153.637V11.024H156.069V9.024ZM154.637 10.024V8.68H152.637V10.024H154.637ZM154.051 9.59037L156.515 8.47037L155.687 6.64963L153.223 7.76963L154.051 9.59037ZM157.057 7.8535L158.177 4.2055L156.265 3.6185L155.145 7.2665L157.057 7.8535ZM157.221 4.912H158.885V2.912H157.221V4.912ZM157.885 3.912V7.848H159.885V3.912H157.885ZM158.885 8.848H163.845V6.848H158.885V8.848ZM162.845 7.848V10.024H164.845V7.848H162.845ZM163.845 9.024H158.885V11.024H163.845V9.024ZM157.885 10.024V19.944H159.885V10.024H157.885ZM157.885 19.944C157.885 21.1263 158.161 22.2017 158.899 22.9719L160.343 21.5881C160.1 21.3343 159.885 20.8523 159.885 19.944H157.885ZM158.929 23.002C159.649 23.6919 160.558 24.016 161.573 24.016V22.016C161.01 22.016 160.617 21.8495 160.313 21.558L158.929 23.002ZM178.544 8.936L179.219 8.19819L179.219 8.19819L178.544 8.936ZM180.048 25V26H181.048V25H180.048ZM178 25L177.024 25.2183L177.198 26H178V25ZM177.456 22.568L178.431 22.3497L178.257 21.568H177.456V22.568ZM177.328 22.568V21.568H176.844L176.544 21.9466L177.328 22.568ZM175.792 24.136L176.412 24.9201L176.416 24.9169L175.792 24.136ZM174 25.032L173.729 24.0693L173.721 24.0717L174 25.032ZM168.784 24.776L168.375 25.6889L168.384 25.6927L168.784 24.776ZM166.864 23.112L166.01 23.6335L166.017 23.6442L166.864 23.112ZM168.176 16.296L168.739 17.122L168.748 17.1158L168.176 16.296ZM174.384 14.76L174.414 15.7595L174.416 15.7595L174.384 14.76ZM177.296 14.664L177.328 15.6635L178.296 15.6316V14.664H177.296ZM176.368 10.664L175.7 11.4086L175.7 11.4086L176.368 10.664ZM171.184 10.248L171.485 11.2016L171.496 11.198L171.507 11.1942L171.184 10.248ZM168.911 11.144L167.986 11.5226L168.389 12.5085L169.348 12.0438L168.911 11.144ZM168.048 9.032L167.57 8.15315L166.783 8.58087L167.122 9.41063L168.048 9.032ZM170.704 8.008L170.965 8.97323L170.974 8.9707L170.984 8.968L170.704 8.008ZM174.736 16.712L174.698 15.7127L174.696 15.7128L174.736 16.712ZM170.288 17.736L169.704 16.9236L169.694 16.9309L170.288 17.736ZM169.936 22.376L169.322 23.1654L169.328 23.1707L169.336 23.176L169.936 22.376ZM175.824 21.864L176.459 22.6365L176.469 22.628L175.824 21.864ZM177.264 16.616H178.264V15.5773L177.226 15.6167L177.264 16.616ZM173.904 8.56C175.874 8.56 177.128 8.99601 177.868 9.6738L179.219 8.19819C177.954 7.04132 176.114 6.56 173.904 6.56V8.56ZM177.868 9.6738C178.582 10.3267 179.048 11.4607 179.048 13.32H181.048C181.048 11.1687 180.51 9.37994 179.219 8.19819L177.868 9.6738ZM179.048 13.32V25H181.048V13.32H179.048ZM180.048 24H178V26H180.048V24ZM178.975 24.7817L178.431 22.3497L176.48 22.7863L177.024 25.2183L178.975 24.7817ZM177.456 21.568H177.328V23.568H177.456V21.568ZM176.544 21.9466C176.093 22.5152 175.633 22.9821 175.167 23.3551L176.416 24.9169C177.017 24.4366 177.581 23.8581 178.111 23.1894L176.544 21.9466ZM175.171 23.352C174.771 23.6684 174.295 23.9101 173.729 24.0693L174.27 25.9947C175.069 25.7699 175.788 25.4143 176.412 24.92L175.171 23.352ZM173.721 24.0717C173.178 24.2293 172.467 24.32 171.568 24.32V26.32C172.588 26.32 173.499 26.2187 174.278 25.9923L173.721 24.0717ZM171.568 24.32C170.663 24.32 169.874 24.1604 169.183 23.8593L168.384 25.6927C169.357 26.1169 170.424 26.32 171.568 26.32V24.32ZM169.192 23.8632C168.56 23.5807 168.073 23.1578 167.71 22.5798L166.017 23.6442C166.592 24.5595 167.385 25.246 168.375 25.6888L169.192 23.8632ZM167.717 22.5905C167.367 22.0179 167.16 21.2508 167.16 20.232H165.16C165.16 21.5172 165.422 22.6701 166.01 23.6334L167.717 22.5905ZM167.16 20.232C167.16 18.8366 167.684 17.8424 168.739 17.1219L167.612 15.47C165.979 16.5843 165.16 18.214 165.16 20.232H167.16ZM168.748 17.1158C169.856 16.3422 171.692 15.8427 174.414 15.7595L174.353 13.7605C171.486 13.848 169.183 14.3725 167.603 15.4762L168.748 17.1158ZM174.416 15.7595L177.328 15.6635L177.263 13.6645L174.351 13.7605L174.416 15.7595ZM178.296 14.664V13.64H176.296V14.664H178.296ZM178.296 13.64C178.296 12.1206 177.976 10.7631 177.035 9.91943L175.7 11.4086C175.996 11.6742 176.296 12.3008 176.296 13.64H178.296ZM177.035 9.91943C176.176 9.14891 175.031 8.832 173.744 8.832V10.832C174.717 10.832 175.322 11.0698 175.7 11.4086L177.035 9.91943ZM173.744 8.832C172.742 8.832 171.779 8.98725 170.86 9.30184L171.507 11.1942C172.209 10.9541 172.953 10.832 173.744 10.832V8.832ZM170.882 9.29442C170.029 9.56379 169.226 9.87994 168.475 10.2442L169.348 12.0438C170.005 11.7254 170.716 11.4442 171.485 11.2016L170.882 9.29442ZM169.837 10.7654L168.973 8.65337L167.122 9.41063L167.986 11.5226L169.837 10.7654ZM168.525 9.91085C169.189 9.55042 169.998 9.23504 170.965 8.97323L170.442 7.04277C169.361 7.33563 168.4 7.70291 167.57 8.15315L168.525 9.91085ZM170.984 8.968C171.913 8.69691 172.885 8.56 173.904 8.56V6.56C172.703 6.56 171.542 6.72175 170.424 7.048L170.984 8.968ZM174.696 15.7128C172.538 15.7991 170.793 16.1421 169.704 16.9237L170.871 18.5483C171.446 18.1353 172.666 17.7956 174.775 17.7112L174.696 15.7128ZM169.694 16.9309C168.605 17.7337 168.072 18.888 168.072 20.264H170.072C170.072 19.464 170.349 18.9329 170.881 18.5411L169.694 16.9309ZM168.072 20.264C168.072 21.4272 168.429 22.4714 169.322 23.1654L170.549 21.5866C170.29 21.3846 170.072 21.0208 170.072 20.264H168.072ZM169.336 23.176C170.142 23.7812 171.124 24.048 172.208 24.048V22.048C171.456 22.048 170.923 21.8668 170.536 21.576L169.336 23.176ZM172.208 24.048C173.849 24.048 175.291 23.5968 176.459 22.6364L175.188 21.0916C174.436 21.7099 173.467 22.048 172.208 22.048V24.048ZM176.469 22.628C177.721 21.5703 178.264 20.0088 178.264 18.152H176.264C176.264 19.6232 175.846 20.5364 175.178 21.1L176.469 22.628ZM178.264 18.152V16.616H176.264V18.152H178.264ZM177.226 15.6167L174.698 15.7127L174.773 17.7113L177.301 17.6153L177.226 15.6167ZM194.369 7.592L194.252 8.58515L194.283 8.58875L194.314 8.59046L194.369 7.592ZM195.361 7.72L196.352 7.85457L196.475 6.95071L195.586 6.74561L195.361 7.72ZM195.009 10.312L194.784 11.2864L195.852 11.5329L196 10.4466L195.009 10.312ZM194.081 10.152L193.949 11.1433L193.957 11.1443L194.081 10.152ZM191.265 10.504L191.686 11.411L191.686 11.411L191.265 10.504ZM189.665 11.688L190.388 12.3792L190.395 12.3716L190.402 12.3637L189.665 11.688ZM188.545 13.48L187.615 13.1135L187.61 13.1258L187.605 13.1383L188.545 13.48ZM188.161 25V26H189.161V25H188.161ZM185.345 25H184.345V26H185.345V25ZM185.345 7.848V6.848H184.345V7.848H185.345ZM187.649 7.848L188.644 7.74649L188.552 6.848H187.649V7.848ZM187.969 10.984L186.974 11.0855L187.066 11.984H187.969V10.984ZM188.097 10.984V11.984H188.68L188.967 11.477L188.097 10.984ZM189.409 9.256L190.116 9.96311L190.123 9.95589L190.13 9.94853L189.409 9.256ZM191.169 8.008L191.581 8.91937L191.593 8.91392L191.605 8.90816L191.169 8.008ZM193.345 8.528C193.621 8.528 193.923 8.54642 194.252 8.58515L194.486 6.59885C194.09 6.55224 193.709 6.528 193.345 6.528V8.528ZM194.314 8.59046C194.659 8.60965 194.93 8.64681 195.136 8.69439L195.586 6.74561C195.237 6.66519 194.847 6.61702 194.424 6.59354L194.314 8.59046ZM194.37 7.58543L194.018 10.1774L196 10.4466L196.352 7.85457L194.37 7.58543ZM195.234 9.33761C194.917 9.26454 194.574 9.20579 194.205 9.15972L193.957 11.1443C194.271 11.1835 194.546 11.2315 194.784 11.2864L195.234 9.33761ZM194.213 9.16077C193.853 9.11273 193.499 9.088 193.153 9.088V11.088C193.404 11.088 193.669 11.1059 193.949 11.1432L194.213 9.16077ZM193.153 9.088C192.347 9.088 191.574 9.25814 190.844 9.59699L191.686 11.411C192.151 11.1952 192.636 11.088 193.153 11.088V9.088ZM190.844 9.59699C190.121 9.93283 189.481 10.4085 188.928 11.0123L190.402 12.3637C190.787 11.9435 191.215 11.6298 191.686 11.411L190.844 9.59699ZM188.942 10.9968C188.374 11.5913 187.934 12.3026 187.615 13.1135L189.475 13.8465C189.711 13.2494 190.018 12.766 190.388 12.3792L188.942 10.9968ZM187.605 13.1383C187.303 13.9685 187.161 14.8759 187.161 15.848H189.161C189.161 15.0707 189.275 14.3995 189.485 13.8217L187.605 13.1383ZM187.161 15.848V25H189.161V15.848H187.161ZM188.161 24H185.345V26H188.161V24ZM186.345 25V7.848H184.345V25H186.345ZM185.345 8.848H187.649V6.848H185.345V8.848ZM186.654 7.94951L186.974 11.0855L188.964 10.8825L188.644 7.74649L186.654 7.94951ZM187.969 11.984H188.097V9.984H187.969V11.984ZM188.967 11.477C189.286 10.9141 189.669 10.4104 190.116 9.96311L188.702 8.54889C188.125 9.12561 187.633 9.77387 187.227 10.491L188.967 11.477ZM190.13 9.94853C190.556 9.50547 191.038 9.16452 191.581 8.91937L190.757 7.09663C189.978 7.44881 189.286 7.93987 188.688 8.56347L190.13 9.94853ZM191.605 8.90816C192.12 8.65868 192.695 8.528 193.345 8.528V6.528C192.416 6.528 191.541 6.71732 190.733 7.10784L191.605 8.90816ZM205.604 22.92L205.745 23.9099L205.768 23.9067L205.791 23.9023L205.604 22.92ZM206.692 22.664H207.692V21.31L206.398 21.7082L206.692 22.664ZM206.692 24.808L207.139 25.7024L207.692 25.426V24.808H206.692ZM205.412 25.16L205.26 24.1716L205.241 24.1745L205.223 24.178L205.412 25.16ZM201.316 24.872L200.922 25.7911L200.937 25.7978L200.953 25.804L201.316 24.872ZM199.492 23.24L198.638 23.7614L199.492 23.24ZM198.788 10.024H199.788V9.024H198.788V10.024ZM196.356 10.024H195.356V11.024H196.356V10.024ZM196.356 8.68L195.942 7.76963L195.356 8.03608V8.68H196.356ZM198.82 7.56L199.234 8.47037L199.644 8.28401L199.776 7.8535L198.82 7.56ZM199.94 3.912V2.912H199.201L198.984 3.6185L199.94 3.912ZM201.604 3.912H202.604V2.912H201.604V3.912ZM201.604 7.848H200.604V8.848H201.604V7.848ZM206.564 7.848H207.564V6.848H206.564V7.848ZM206.564 10.024V11.024H207.564V10.024H206.564ZM201.604 10.024V9.024H200.604V10.024H201.604ZM202.34 22.28L201.618 22.9719L201.632 22.9873L201.648 23.002L202.34 22.28ZM204.292 24.016C204.768 24.016 205.253 23.9802 205.745 23.9099L205.462 21.9301C205.058 21.9878 204.668 22.016 204.292 22.016V24.016ZM205.791 23.9023C206.257 23.8135 206.659 23.7202 206.986 23.6198L206.398 21.7082C206.169 21.7785 205.846 21.8558 205.417 21.9377L205.791 23.9023ZM205.692 22.664V24.808H207.692V22.664H205.692ZM206.245 23.9136C206.081 23.9955 205.771 24.0929 205.26 24.1716L205.564 26.1484C206.161 26.0564 206.705 25.9192 207.139 25.7024L206.245 23.9136ZM205.223 24.178C204.724 24.2739 204.254 24.32 203.812 24.32V26.32C204.393 26.32 204.99 26.2594 205.601 26.142L205.223 24.178ZM203.812 24.32C203.029 24.32 202.321 24.1899 201.678 23.94L200.953 25.804C201.847 26.1514 202.803 26.32 203.812 26.32V24.32ZM201.71 23.9529C201.174 23.7233 200.718 23.3295 200.345 22.7185L198.638 23.7614C199.204 24.6865 199.964 25.3807 200.922 25.7911L201.71 23.9529ZM200.345 22.7185C200.01 22.1707 199.788 21.3022 199.788 20.008H197.788C197.788 21.4871 198.035 22.7733 198.638 23.7614L200.345 22.7185ZM199.788 20.008V10.024H197.788V20.008H199.788ZM198.788 9.024H196.356V11.024H198.788V9.024ZM197.356 10.024V8.68H195.356V10.024H197.356ZM196.77 9.59037L199.234 8.47037L198.406 6.64963L195.942 7.76963L196.77 9.59037ZM199.776 7.8535L200.896 4.2055L198.984 3.6185L197.864 7.2665L199.776 7.8535ZM199.94 4.912H201.604V2.912H199.94V4.912ZM200.604 3.912V7.848H202.604V3.912H200.604ZM201.604 8.848H206.564V6.848H201.604V8.848ZM205.564 7.848V10.024H207.564V7.848H205.564ZM206.564 9.024H201.604V11.024H206.564V9.024ZM200.604 10.024V19.944H202.604V10.024H200.604ZM200.604 19.944C200.604 21.1263 200.88 22.2017 201.618 22.9719L203.062 21.5881C202.819 21.3343 202.604 20.8523 202.604 19.944H200.604ZM201.648 23.002C202.368 23.6919 203.276 24.016 204.292 24.016V22.016C203.729 22.016 203.336 21.8495 203.032 21.558L201.648 23.002ZM220.526 8.488L220.004 9.34088L220.012 9.34549L220.526 8.488ZM222.958 11.208L222.054 11.6354L222.059 11.6453L222.064 11.6552L222.958 11.208ZM223.822 16.968V17.968H224.822V16.968H223.822ZM212.078 16.968V15.968H211.056L211.078 16.99L212.078 16.968ZM213.55 21.416L212.813 22.0917L212.82 22.0997L212.828 22.1076L213.55 21.416ZM220.43 22.632L220.655 23.6064L220.664 23.6043L220.673 23.6021L220.43 22.632ZM223.054 21.736H224.054V20.2195L222.66 20.8169L223.054 21.736ZM223.054 24.2L223.456 25.1156L224.054 24.8531V24.2H223.054ZM220.462 25.032L220.266 24.0514L220.254 24.0538L220.243 24.0564L220.462 25.032ZM213.102 24.328L212.631 25.21L212.637 25.2132L213.102 24.328ZM210.19 21.384L209.302 21.8426L209.306 21.8513L209.311 21.8598L210.19 21.384ZM210.094 11.72L209.191 11.29L209.186 11.3019L210.094 11.72ZM212.75 8.616L212.217 7.76974L212.21 7.77431L212.75 8.616ZM213.518 11.144L212.776 10.474L212.775 10.475L213.518 11.144ZM212.142 14.728L211.147 14.6312L211.04 15.728H212.142V14.728ZM220.878 14.728V15.728H221.878V14.728H220.878ZM220.43 12.168L219.506 12.5487L219.506 12.5487L220.43 12.168ZM219.054 10.472L218.473 11.2857L218.489 11.2974L218.506 11.3085L219.054 10.472ZM216.75 8.528C218.075 8.528 219.145 8.81483 220.004 9.34085L221.048 7.63515C219.817 6.88117 218.369 6.528 216.75 6.528V8.528ZM220.012 9.34549C220.901 9.87922 221.58 10.6326 222.054 11.6354L223.862 10.7806C223.227 9.43674 222.285 8.37678 221.041 7.63051L220.012 9.34549ZM222.064 11.6552C222.557 12.6423 222.822 13.8379 222.822 15.272H224.822C224.822 13.5915 224.511 12.0777 223.853 10.7608L222.064 11.6552ZM222.822 15.272V16.968H224.822V15.272H222.822ZM223.822 15.968H212.078V17.968H223.822V15.968ZM211.078 16.99C211.124 19.0777 211.655 20.8288 212.813 22.0917L214.287 20.7403C213.568 19.9552 213.117 18.7409 213.078 16.946L211.078 16.99ZM212.828 22.1076C214.018 23.3509 215.638 23.92 217.55 23.92V21.92C216.049 21.92 215.002 21.4865 214.273 20.7244L212.828 22.1076ZM217.55 23.92C218.694 23.92 219.732 23.8193 220.655 23.6064L220.205 21.6576C219.464 21.8287 218.582 21.92 217.55 21.92V23.92ZM220.673 23.6021C221.583 23.3746 222.508 23.0579 223.448 22.6551L222.66 20.8169C221.808 21.1821 220.984 21.4628 220.188 21.6619L220.673 23.6021ZM222.054 21.736V24.2H224.054V21.736H222.054ZM222.652 23.2844C221.837 23.6421 221.042 23.8962 220.266 24.0514L220.658 26.0126C221.589 25.8265 222.522 25.5259 223.456 25.1156L222.652 23.2844ZM220.243 24.0564C219.481 24.2278 218.545 24.32 217.422 24.32V26.32C218.646 26.32 219.737 26.2202 220.682 26.0076L220.243 24.0564ZM217.422 24.32C215.94 24.32 214.664 24.0187 213.567 23.4428L212.637 25.2132C214.058 25.9599 215.662 26.32 217.422 26.32V24.32ZM213.574 23.4461C212.519 22.8823 211.686 22.047 211.07 20.9082L209.311 21.8598C210.103 23.3237 211.211 24.451 212.631 25.2099L213.574 23.4461ZM211.079 20.9254C210.487 19.7782 210.166 18.3339 210.166 16.552H208.166C208.166 18.5675 208.528 20.3445 209.302 21.8426L211.079 20.9254ZM210.166 16.552C210.166 14.7815 210.458 13.3207 211.003 12.1381L209.186 11.3019C208.493 12.8073 208.166 14.5678 208.166 16.552H210.166ZM210.997 12.1499C211.566 10.9556 212.333 10.0716 213.29 9.45769L212.21 7.77431C210.906 8.61104 209.903 9.79645 209.191 11.2901L210.997 12.1499ZM213.283 9.46223C214.258 8.84843 215.402 8.528 216.75 8.528V6.528C215.069 6.528 213.547 6.9329 212.217 7.76977L213.283 9.46223ZM216.718 8.832C215.135 8.832 213.782 9.35865 212.776 10.474L214.261 11.814C214.833 11.18 215.613 10.832 216.718 10.832V8.832ZM212.775 10.475C211.822 11.5339 211.31 12.9549 211.147 14.6312L213.138 14.8248C213.273 13.4291 213.679 12.4607 214.262 11.813L212.775 10.475ZM212.142 15.728H220.878V13.728H212.142V15.728ZM221.878 14.728C221.878 13.6477 221.714 12.6595 221.355 11.7872L219.506 12.5487C219.744 13.1271 219.878 13.8456 219.878 14.728H221.878ZM221.355 11.7872C220.984 10.8874 220.4 10.1582 219.602 9.63554L218.506 11.3085C218.946 11.5965 219.279 11.9979 219.506 12.5487L221.355 11.7872ZM219.635 9.65827C218.823 9.07802 217.823 8.832 216.718 8.832V10.832C217.534 10.832 218.091 11.0126 218.473 11.2857L219.635 9.65827ZM237.213 7.592L237.096 8.58515L237.127 8.58875L237.157 8.59046L237.213 7.592ZM238.205 7.72L239.196 7.85457L239.318 6.95071L238.43 6.74561L238.205 7.72ZM237.853 10.312L237.628 11.2864L238.696 11.5329L238.844 10.4466L237.853 10.312ZM236.925 10.152L236.793 11.1433L236.801 11.1443L236.925 10.152ZM234.109 10.504L234.53 11.411L234.53 11.411L234.109 10.504ZM232.509 11.688L233.231 12.3792L233.239 12.3716L233.246 12.3637L232.509 11.688ZM231.389 13.48L230.458 13.1135L230.453 13.1258L230.449 13.1383L231.389 13.48ZM231.005 25V26H232.005V25H231.005ZM228.189 25H227.189V26H228.189V25ZM228.189 7.848V6.848H227.189V7.848H228.189ZM230.493 7.848L231.488 7.74649L231.396 6.848H230.493V7.848ZM230.813 10.984L229.818 11.0855L229.91 11.984H230.813V10.984ZM230.941 10.984V11.984H231.523L231.811 11.477L230.941 10.984ZM232.253 9.256L232.96 9.96311L232.967 9.95589L232.974 9.94853L232.253 9.256ZM234.013 8.008L234.424 8.91937L234.436 8.91392L234.448 8.90816L234.013 8.008ZM236.189 8.528C236.465 8.528 236.767 8.54642 237.096 8.58515L237.33 6.59885C236.933 6.55224 236.553 6.528 236.189 6.528V8.528ZM237.157 8.59046C237.503 8.60965 237.774 8.64681 237.98 8.69439L238.43 6.74561C238.081 6.66519 237.691 6.61702 237.268 6.59354L237.157 8.59046ZM237.214 7.58543L236.862 10.1774L238.844 10.4466L239.196 7.85457L237.214 7.58543ZM238.078 9.33761C237.761 9.26454 237.417 9.20579 237.049 9.15972L236.801 11.1443C237.115 11.1835 237.39 11.2315 237.628 11.2864L238.078 9.33761ZM237.057 9.16077C236.697 9.11273 236.343 9.088 235.997 9.088V11.088C236.248 11.088 236.513 11.1059 236.793 11.1432L237.057 9.16077ZM235.997 9.088C235.191 9.088 234.417 9.25814 233.688 9.59699L234.53 11.411C234.995 11.1952 235.48 11.088 235.997 11.088V9.088ZM233.688 9.59699C232.964 9.93283 232.325 10.4085 231.772 11.0123L233.246 12.3637C233.631 11.9435 234.059 11.6298 234.53 11.411L233.688 9.59699ZM231.786 10.9968C231.217 11.5913 230.778 12.3026 230.458 13.1135L232.319 13.8465C232.554 13.2494 232.861 12.766 233.231 12.3792L231.786 10.9968ZM230.449 13.1383C230.147 13.9685 230.005 14.8759 230.005 15.848H232.005C232.005 15.0707 232.118 14.3995 232.329 13.8217L230.449 13.1383ZM230.005 15.848V25H232.005V15.848H230.005ZM231.005 24H228.189V26H231.005V24ZM229.189 25V7.848H227.189V25H229.189ZM228.189 8.848H230.493V6.848H228.189V8.848ZM229.498 7.94951L229.818 11.0855L231.808 10.8825L231.488 7.74649L229.498 7.94951ZM230.813 11.984H230.941V9.984H230.813V11.984ZM231.811 11.477C232.13 10.9141 232.513 10.4104 232.96 9.96311L231.546 8.54889C230.969 9.12561 230.477 9.77387 230.071 10.491L231.811 11.477ZM232.974 9.94853C233.399 9.50547 233.882 9.16452 234.424 8.91937L233.601 7.09663C232.821 7.44881 232.13 7.93987 231.531 8.56347L232.974 9.94853ZM234.448 8.90816C234.964 8.65868 235.539 8.528 236.189 8.528V6.528C235.26 6.528 234.384 6.71732 233.577 7.10784L234.448 8.90816Z" fill="#3C3799"/>
<defs>
<filter id="filter0_i_0_1" x="0.416504" y="0.679993" width="237.788" height="36" filterUnits="userSpaceOnUse" color-interpolation-filters="sRGB">
<feFlood flood-opacity="0" result="BackgroundImageFix"/>
<feBlend mode="normal" in="SourceGraphic" in2="BackgroundImageFix" result="shape"/>
<feColorMatrix in="SourceAlpha" type="matrix" values="0 0 0 0 0 0 0 0 0 0 0 0 0 0 0 0 0 0 127 0" result="hardAlpha"/>
<feOffset dy="4"/>
<feGaussianBlur stdDeviation="2"/>
<feComposite in2="hardAlpha" operator="arithmetic" k2="-1" k3="1"/>
<feColorMatrix type="matrix" values="0 0 0 0 0 0 0 0 0 0 0 0 0 0 0 0 0 0 0.25 0"/>
<feBlend mode="normal" in2="shape" result="effect1_innerShadow_0_1"/>
</filter>
</defs>
</svg>
