<svg width="203" height="33" viewBox="0 0 203 33" fill="none" xmlns="http://www.w3.org/2000/svg">
<g filter="url(#filter0_i_0_1)">
<path d="M14.6421 18.888C14.6421 20.2533 14.3115 21.416 13.6501 22.376C12.9888 23.3147 12.0395 24.04 10.8021 24.552C9.58613 25.064 8.14613 25.32 6.48213 25.32C5.62879 25.32 4.80746 25.2773 4.01813 25.192C3.25013 25.1067 2.54613 24.9893 1.90613 24.84C1.26613 24.6693 0.700792 24.4667 0.210125 24.232V21.48C0.978125 21.8213 1.92746 22.1307 3.05813 22.408C4.21013 22.6853 5.39413 22.824 6.61013 22.824C7.74079 22.824 8.69013 22.6747 9.45813 22.376C10.2261 22.0773 10.8021 21.6507 11.1861 21.096C11.5701 20.5413 11.7621 19.8907 11.7621 19.144C11.7621 18.3973 11.6021 17.768 11.2821 17.256C10.9621 16.744 10.4075 16.2747 9.61813 15.848C8.85013 15.4 7.77279 14.9307 6.38613 14.44C5.40479 14.0773 4.54079 13.6933 3.79413 13.288C3.06879 12.8613 2.46079 12.3813 1.97013 11.848C1.47946 11.3147 1.10613 10.7067 0.850125 10.024C0.615458 9.34133 0.498125 8.552 0.498125 7.656C0.498125 6.44 0.807458 5.40533 1.42613 4.552C2.04479 3.67733 2.89813 3.00533 3.98613 2.536C5.09546 2.06667 6.36479 1.832 7.79413 1.832C9.05279 1.832 10.2048 1.94933 11.2501 2.184C12.2955 2.41867 13.2448 2.728 14.0981 3.112L13.2021 5.576C12.4128 5.23467 11.5488 4.94667 10.6101 4.712C9.69279 4.47733 8.73279 4.36 7.73013 4.36C6.77013 4.36 5.97013 4.49867 5.33013 4.776C4.69013 5.05333 4.21013 5.448 3.89013 5.96C3.57013 6.45067 3.41013 7.02667 3.41013 7.688C3.41013 8.456 3.57013 9.096 3.89013 9.608C4.21013 10.12 4.73279 10.5787 5.45813 10.984C6.18346 11.3893 7.16479 11.8267 8.40213 12.296C9.74613 12.7867 10.8768 13.32 11.7941 13.896C12.7328 14.4507 13.4368 15.1227 13.9061 15.912C14.3968 16.7013 14.6421 17.6933 14.6421 18.888ZM21.6766 7.848V25H18.8606V7.848H21.6766ZM20.3006 1.416C20.7273 1.416 21.1006 1.56533 21.4206 1.864C21.762 2.14133 21.9326 2.58933 21.9326 3.208C21.9326 3.80533 21.762 4.25333 21.4206 4.552C21.1006 4.85067 20.7273 5 20.3006 5C19.8313 5 19.4366 4.85067 19.1166 4.552C18.7966 4.25333 18.6366 3.80533 18.6366 3.208C18.6366 2.58933 18.7966 2.14133 19.1166 1.864C19.4366 1.56533 19.8313 1.416 20.3006 1.416ZM45.9266 7.528C47.868 7.528 49.3186 8.02933 50.2786 9.032C51.2386 10.0133 51.7186 11.6133 51.7186 13.832V25H48.9346V13.96C48.9346 12.616 48.6466 11.6027 48.0706 10.92C47.516 10.2373 46.6413 9.896 45.4466 9.896C43.7826 9.896 42.588 10.376 41.8626 11.336C41.1586 12.296 40.8066 13.6933 40.8066 15.528V25H38.0226V13.96C38.0226 13.064 37.8946 12.3173 37.6386 11.72C37.3826 11.1013 36.9986 10.6427 36.4866 10.344C35.9746 10.0453 35.3133 9.896 34.5026 9.896C33.3506 9.896 32.444 10.1413 31.7826 10.632C31.1213 11.1013 30.6413 11.7947 30.3426 12.712C30.0653 13.6293 29.9266 14.76 29.9266 16.104V25H27.1106V7.848H29.3826L29.7986 10.184H29.9586C30.3213 9.58667 30.7586 9.096 31.2706 8.712C31.804 8.30667 32.3906 8.008 33.0306 7.816C33.6706 7.624 34.332 7.528 35.0146 7.528C36.3373 7.528 37.436 7.76267 38.3106 8.232C39.2066 8.70133 39.8573 9.42667 40.2626 10.408H40.4226C40.9986 9.42667 41.7773 8.70133 42.7586 8.232C43.7613 7.76267 44.8173 7.528 45.9266 7.528ZM65.1769 7.528C67.2889 7.528 68.9849 8.264 70.2649 9.736C71.5662 11.208 72.2169 13.4267 72.2169 16.392C72.2169 18.3333 71.9182 19.976 71.3209 21.32C70.7449 22.6427 69.9235 23.6453 68.8569 24.328C67.8115 24.9893 66.5742 25.32 65.1449 25.32C64.2702 25.32 63.4915 25.2027 62.8089 24.968C62.1262 24.7333 61.5395 24.4347 61.0489 24.072C60.5795 23.688 60.1742 23.272 59.8329 22.824H59.6409C59.6835 23.1867 59.7262 23.6453 59.7689 24.2C59.8115 24.7547 59.8329 25.2347 59.8329 25.64V32.68H57.0169V7.848H59.3209L59.7049 10.184H59.8329C60.1742 9.69333 60.5795 9.24533 61.0489 8.84C61.5395 8.43467 62.1155 8.11467 62.7769 7.88C63.4595 7.64533 64.2595 7.528 65.1769 7.528ZM64.6649 9.896C63.5129 9.896 62.5849 10.12 61.8809 10.568C61.1769 10.9947 60.6649 11.6453 60.3449 12.52C60.0249 13.3947 59.8542 14.504 59.8329 15.848V16.392C59.8329 17.8 59.9822 18.9947 60.2809 19.976C60.5795 20.9573 61.0809 21.704 61.7849 22.216C62.5102 22.728 63.4915 22.984 64.7289 22.984C65.7742 22.984 66.6275 22.696 67.2889 22.12C67.9715 21.544 68.4729 20.7653 68.7929 19.784C69.1342 18.7813 69.3049 17.64 69.3049 16.36C69.3049 14.3973 68.9209 12.8293 68.1529 11.656C67.4062 10.4827 66.2435 9.896 64.6649 9.896ZM79.5204 25H76.7044V0.679998H79.5204V25ZM91.5784 7.528C93.0504 7.528 94.309 7.848 95.3544 8.488C96.421 9.128 97.2317 10.0347 97.7864 11.208C98.3624 12.36 98.6504 13.7147 98.6504 15.272V16.968H86.9064C86.949 18.9093 87.4397 20.392 88.3784 21.416C89.3384 22.4187 90.6717 22.92 92.3784 22.92C93.4664 22.92 94.4264 22.824 95.2584 22.632C96.1117 22.4187 96.9864 22.12 97.8824 21.736V24.2C97.0077 24.584 96.1437 24.8613 95.2904 25.032C94.437 25.224 93.4237 25.32 92.2504 25.32C90.629 25.32 89.189 24.9893 87.9304 24.328C86.693 23.6667 85.7224 22.6853 85.0184 21.384C84.3357 20.0613 83.9944 18.4507 83.9944 16.552C83.9944 14.6747 84.3037 13.064 84.9224 11.72C85.5624 10.376 86.4477 9.34133 87.5784 8.616C88.7304 7.89067 90.0637 7.528 91.5784 7.528ZM91.5464 9.832C90.2024 9.832 89.1357 10.2693 88.3464 11.144C87.5784 11.9973 87.1197 13.192 86.9704 14.728H95.7064C95.7064 13.7467 95.557 12.8933 95.2584 12.168C94.9597 11.4427 94.501 10.8773 93.8824 10.472C93.285 10.0453 92.5064 9.832 91.5464 9.832ZM116.361 18.888C116.361 20.2533 116.03 21.416 115.369 22.376C114.708 23.3147 113.758 24.04 112.521 24.552C111.305 25.064 109.865 25.32 108.201 25.32C107.348 25.32 106.526 25.2773 105.737 25.192C104.969 25.1067 104.265 24.9893 103.625 24.84C102.985 24.6693 102.42 24.4667 101.929 24.232V21.48C102.697 21.8213 103.646 22.1307 104.777 22.408C105.929 22.6853 107.113 22.824 108.329 22.824C109.46 22.824 110.409 22.6747 111.177 22.376C111.945 22.0773 112.521 21.6507 112.905 21.096C113.289 20.5413 113.481 19.8907 113.481 19.144C113.481 18.3973 113.321 17.768 113.001 17.256C112.681 16.744 112.126 16.2747 111.337 15.848C110.569 15.4 109.492 14.9307 108.105 14.44C107.124 14.0773 106.26 13.6933 105.513 13.288C104.788 12.8613 104.18 12.3813 103.689 11.848C103.198 11.3147 102.825 10.7067 102.569 10.024C102.334 9.34133 102.217 8.552 102.217 7.656C102.217 6.44 102.526 5.40533 103.145 4.552C103.764 3.67733 104.617 3.00533 105.705 2.536C106.814 2.06667 108.084 1.832 109.513 1.832C110.772 1.832 111.924 1.94933 112.969 2.184C114.014 2.41867 114.964 2.728 115.817 3.112L114.921 5.576C114.132 5.23467 113.268 4.94667 112.329 4.712C111.412 4.47733 110.452 4.36 109.449 4.36C108.489 4.36 107.689 4.49867 107.049 4.776C106.409 5.05333 105.929 5.448 105.609 5.96C105.289 6.45067 105.129 7.02667 105.129 7.688C105.129 8.456 105.289 9.096 105.609 9.608C105.929 10.12 106.452 10.5787 107.177 10.984C107.902 11.3893 108.884 11.8267 110.121 12.296C111.465 12.7867 112.596 13.32 113.513 13.896C114.452 14.4507 115.156 15.1227 115.625 15.912C116.116 16.7013 116.361 17.6933 116.361 18.888ZM126.307 23.016C126.734 23.016 127.171 22.984 127.619 22.92C128.067 22.8347 128.43 22.7493 128.707 22.664V24.808C128.409 24.9573 127.982 25.0747 127.427 25.16C126.873 25.2667 126.339 25.32 125.827 25.32C124.931 25.32 124.099 25.1707 123.331 24.872C122.585 24.552 121.977 24.008 121.507 23.24C121.038 22.472 120.803 21.3947 120.803 20.008V10.024H118.371V8.68L120.835 7.56L121.955 3.912H123.619V7.848H128.579V10.024H123.619V19.944C123.619 20.9893 123.865 21.768 124.355 22.28C124.867 22.7707 125.518 23.016 126.307 23.016ZM138.638 7.56C140.729 7.56 142.275 8.01867 143.278 8.936C144.281 9.85333 144.782 11.3147 144.782 13.32V25H142.734L142.19 22.568H142.062C141.571 23.1867 141.059 23.7093 140.526 24.136C140.014 24.5413 139.417 24.84 138.734 25.032C138.073 25.224 137.262 25.32 136.302 25.32C135.278 25.32 134.35 25.1387 133.518 24.776C132.707 24.4133 132.067 23.8587 131.598 23.112C131.129 22.344 130.894 21.384 130.894 20.232C130.894 18.5253 131.566 17.2133 132.91 16.296C134.254 15.3573 136.323 14.8453 139.118 14.76L142.03 14.664V13.64C142.03 12.2107 141.721 11.2187 141.102 10.664C140.483 10.1093 139.609 9.832 138.478 9.832C137.582 9.832 136.729 9.97067 135.918 10.248C135.107 10.504 134.35 10.8027 133.646 11.144L132.782 9.032C133.529 8.62667 134.414 8.28533 135.438 8.008C136.462 7.70933 137.529 7.56 138.638 7.56ZM139.47 16.712C137.337 16.7973 135.854 17.1387 135.022 17.736C134.211 18.3333 133.806 19.176 133.806 20.264C133.806 21.224 134.094 21.928 134.67 22.376C135.267 22.824 136.025 23.048 136.942 23.048C138.393 23.048 139.598 22.6533 140.558 21.864C141.518 21.0533 141.998 19.816 141.998 18.152V16.616L139.47 16.712ZM158.079 7.528C158.399 7.528 158.741 7.54933 159.103 7.592C159.487 7.61333 159.818 7.656 160.095 7.72L159.743 10.312C159.466 10.248 159.157 10.1947 158.815 10.152C158.495 10.1093 158.186 10.088 157.887 10.088C157.226 10.088 156.597 10.2267 155.999 10.504C155.402 10.7813 154.869 11.176 154.399 11.688C153.93 12.1787 153.557 12.776 153.279 13.48C153.023 14.184 152.895 14.9733 152.895 15.848V25H150.079V7.848H152.383L152.703 10.984H152.831C153.194 10.344 153.631 9.768 154.143 9.256C154.655 8.72267 155.242 8.30667 155.903 8.008C156.565 7.688 157.29 7.528 158.079 7.528ZM169.026 23.016C169.453 23.016 169.89 22.984 170.338 22.92C170.786 22.8347 171.149 22.7493 171.426 22.664V24.808C171.127 24.9573 170.701 25.0747 170.146 25.16C169.591 25.2667 169.058 25.32 168.546 25.32C167.65 25.32 166.818 25.1707 166.05 24.872C165.303 24.552 164.695 24.008 164.226 23.24C163.757 22.472 163.522 21.3947 163.522 20.008V10.024H161.09V8.68L163.554 7.56L164.674 3.912H166.338V7.848H171.298V10.024H166.338V19.944C166.338 20.9893 166.583 21.768 167.074 22.28C167.586 22.7707 168.237 23.016 169.026 23.016ZM181.485 7.528C182.957 7.528 184.215 7.848 185.261 8.488C186.327 9.128 187.138 10.0347 187.693 11.208C188.269 12.36 188.557 13.7147 188.557 15.272V16.968H176.813C176.855 18.9093 177.346 20.392 178.285 21.416C179.245 22.4187 180.578 22.92 182.285 22.92C183.373 22.92 184.333 22.824 185.165 22.632C186.018 22.4187 186.893 22.12 187.789 21.736V24.2C186.914 24.584 186.05 24.8613 185.197 25.032C184.343 25.224 183.33 25.32 182.157 25.32C180.535 25.32 179.095 24.9893 177.837 24.328C176.599 23.6667 175.629 22.6853 174.925 21.384C174.242 20.0613 173.901 18.4507 173.901 16.552C173.901 14.6747 174.21 13.064 174.829 11.72C175.469 10.376 176.354 9.34133 177.485 8.616C178.637 7.89067 179.97 7.528 181.485 7.528ZM181.453 9.832C180.109 9.832 179.042 10.2693 178.253 11.144C177.485 11.9973 177.026 13.192 176.877 14.728H185.613C185.613 13.7467 185.463 12.8933 185.165 12.168C184.866 11.4427 184.407 10.8773 183.789 10.472C183.191 10.0453 182.413 9.832 181.453 9.832ZM200.923 7.528C201.243 7.528 201.584 7.54933 201.947 7.592C202.331 7.61333 202.662 7.656 202.939 7.72L202.587 10.312C202.31 10.248 202 10.1947 201.659 10.152C201.339 10.1093 201.03 10.088 200.731 10.088C200.07 10.088 199.44 10.2267 198.843 10.504C198.246 10.7813 197.712 11.176 197.243 11.688C196.774 12.1787 196.4 12.776 196.123 13.48C195.867 14.184 195.739 14.9733 195.739 15.848V25H192.923V7.848H195.227L195.547 10.984H195.675C196.038 10.344 196.475 9.768 196.987 9.256C197.499 8.72267 198.086 8.30667 198.747 8.008C199.408 7.688 200.134 7.528 200.923 7.528Z" fill="#645CFF"/>
</g>
<path d="M13.6501 22.376L14.4677 22.952L14.4736 22.9433L13.6501 22.376ZM10.8021 24.552L10.4198 23.628L10.4141 23.6304L10.8021 24.552ZM4.01813 25.192L3.90769 26.1859L3.91064 26.1862L4.01813 25.192ZM1.90613 24.84L1.64846 25.8062L1.66362 25.8103L1.6789 25.8138L1.90613 24.84ZM0.210125 24.232H-0.789875V24.8622L-0.22133 25.1341L0.210125 24.232ZM0.210125 21.48L0.616264 20.5662L-0.789875 19.9412V21.48H0.210125ZM3.05813 22.408L2.8199 23.3792L2.82407 23.3802L3.05813 22.408ZM9.45813 22.376L9.09568 21.444L9.09568 21.444L9.45813 22.376ZM11.1861 21.096L10.3639 20.5268L10.3639 20.5268L11.1861 21.096ZM11.2821 17.256L10.4341 17.786L10.4341 17.786L11.2821 17.256ZM9.61813 15.848L9.11426 16.7118L9.1283 16.72L9.14261 16.7277L9.61813 15.848ZM6.38613 14.44L6.03944 15.3781L6.05255 15.3827L6.38613 14.44ZM3.79413 13.288L3.28711 14.1499L3.30192 14.1587L3.31703 14.1669L3.79413 13.288ZM0.850125 10.024L-0.0955614 10.3491L-0.091063 10.3622L-0.0862041 10.3751L0.850125 10.024ZM1.42613 4.552L2.23579 5.13901L2.24254 5.12946L1.42613 4.552ZM3.98613 2.536L3.59648 1.61501L3.59003 1.61779L3.98613 2.536ZM11.2501 2.184L11.4692 1.20828L11.4692 1.20828L11.2501 2.184ZM14.0981 3.112L15.0379 3.45374L15.3552 2.58111L14.5085 2.20008L14.0981 3.112ZM13.2021 5.576L12.8052 6.49386L13.7793 6.91506L14.1419 5.91774L13.2021 5.576ZM10.6101 4.712L10.3623 5.68082L10.3676 5.68214L10.6101 4.712ZM3.89013 5.96L4.72774 6.50627L4.73301 6.49818L4.73812 6.49L3.89013 5.96ZM3.89013 9.608L4.73812 9.078L4.73812 9.078L3.89013 9.608ZM5.45813 10.984L4.9703 11.8569L4.9703 11.8569L5.45813 10.984ZM8.40213 12.296L8.04744 13.2311L8.05919 13.2354L8.40213 12.296ZM11.7941 13.896L11.2624 14.7429L11.2738 14.7501L11.2854 14.7569L11.7941 13.896ZM13.9061 15.912L13.0466 16.4231L13.0516 16.4316L13.0568 16.4399L13.9061 15.912ZM13.6421 18.888C13.6421 20.0863 13.3543 21.0426 12.8266 21.8087L14.4736 22.9433C15.2686 21.7894 15.6421 20.4204 15.6421 18.888H13.6421ZM12.8326 21.8C12.2976 22.5595 11.5117 23.1762 10.4198 23.628L11.1845 25.476C12.5673 24.9038 13.68 24.0698 14.4676 22.952L12.8326 21.8ZM10.4141 23.6304C9.34845 24.079 8.0464 24.32 6.48213 24.32V26.32C8.24586 26.32 9.8238 26.049 11.1902 25.4736L10.4141 23.6304ZM6.48213 24.32C5.66206 24.32 4.87671 24.279 4.12561 24.1978L3.91064 26.1862C4.73821 26.2757 5.59553 26.32 6.48213 26.32V24.32ZM4.12856 24.1981C3.39323 24.1164 2.72887 24.0051 2.13335 23.8662L1.6789 25.8138C2.36338 25.9736 3.10702 26.0969 3.90769 26.1859L4.12856 24.1981ZM2.16379 23.8738C1.57118 23.7157 1.06593 23.5328 0.641581 23.3299L-0.22133 25.1341C0.335653 25.4005 0.961073 25.6229 1.64846 25.8062L2.16379 23.8738ZM1.21013 24.232V21.48H-0.789875V24.232H1.21013ZM-0.196013 22.3938C0.642323 22.7664 1.65189 23.0927 2.8199 23.3792L3.29635 21.4368C2.20303 21.1686 1.31393 20.8763 0.616264 20.5662L-0.196013 22.3938ZM2.82407 23.3802C4.05471 23.6765 5.31736 23.824 6.61013 23.824V21.824C5.47089 21.824 4.36554 21.6942 3.29218 21.4358L2.82407 23.3802ZM6.61013 23.824C7.82174 23.824 8.90274 23.6649 9.82057 23.308L9.09568 21.444C8.47751 21.6844 7.65984 21.824 6.61013 21.824V23.824ZM9.82057 23.308C10.733 22.9532 11.4877 22.4172 12.0083 21.6652L10.3639 20.5268C10.1166 20.8841 9.7193 21.2015 9.09568 21.444L9.82057 23.308ZM12.0083 21.6652C12.5204 20.9256 12.7621 20.0714 12.7621 19.144H10.7621C10.7621 19.7099 10.6199 20.1571 10.3639 20.5268L12.0083 21.6652ZM12.7621 19.144C12.7621 18.2542 12.5706 17.4307 12.1301 16.726L10.4341 17.786C10.6337 18.1053 10.7621 18.5405 10.7621 19.144H12.7621ZM12.1301 16.726C11.6843 16.0127 10.9666 15.4402 10.0936 14.9683L9.14261 16.7277C9.8483 17.1092 10.2399 17.4753 10.4341 17.786L12.1301 16.726ZM10.122 14.9842C9.27627 14.4909 8.13254 13.9972 6.7197 13.4973L6.05255 15.3827C7.41305 15.8641 8.42398 16.3091 9.11426 16.7118L10.122 14.9842ZM6.73278 13.502C5.78646 13.1523 4.96758 12.7872 4.27122 12.4091L3.31703 14.1669C4.114 14.5995 5.02312 15.0024 6.03948 15.378L6.73278 13.502ZM4.30114 12.4261C3.64745 12.0415 3.12021 11.6211 2.70606 11.1709L1.23419 12.5251C1.80138 13.1416 2.49014 13.6811 3.28711 14.1499L4.30114 12.4261ZM2.70606 11.1709C2.30308 10.7329 1.99754 10.2358 1.78645 9.67288L-0.0862041 10.3751C0.214714 11.1776 0.655833 11.8964 1.23419 12.5251L2.70606 11.1709ZM1.79581 9.69892C1.60458 9.14261 1.49813 8.46699 1.49813 7.656H-0.501875C-0.501875 8.63701 -0.373664 9.54006 -0.0955614 10.3491L1.79581 9.69892ZM1.49813 7.656C1.49813 6.61724 1.75918 5.79628 2.23574 5.13897L0.616514 3.96503C-0.144265 5.01438 -0.501875 6.26276 -0.501875 7.656H1.49813ZM2.24254 5.12946C2.74405 4.42044 3.44454 3.8587 4.38222 3.45421L3.59003 1.61779C2.35171 2.15197 1.34554 2.93423 0.60971 3.97453L2.24254 5.12946ZM4.37577 3.45697C5.34105 3.04857 6.4741 2.832 7.79413 2.832V0.831999C6.25549 0.831999 4.84986 1.08476 3.59649 1.61503L4.37577 3.45697ZM7.79413 2.832C8.99154 2.832 10.0688 2.9437 11.0311 3.15971L11.4692 1.20828C10.3407 0.954962 9.11404 0.831999 7.79413 0.831999V2.832ZM11.0311 3.15971C12.0199 3.3817 12.904 3.67122 13.6878 4.02392L14.5085 2.20008C13.5856 1.78478 12.571 1.45563 11.4692 1.20828L11.0311 3.15971ZM13.1583 2.77026L12.2623 5.23426L14.1419 5.91774L15.0379 3.45374L13.1583 2.77026ZM13.599 4.65814C12.754 4.29273 11.8377 3.98811 10.8527 3.74186L10.3676 5.68214C11.2599 5.90522 12.0716 6.1766 12.8052 6.49386L13.599 4.65814ZM10.858 3.7432C9.85502 3.48663 8.81147 3.36 7.73013 3.36V5.36C8.65411 5.36 9.53056 5.46803 10.3623 5.6808L10.858 3.7432ZM7.73013 3.36C6.68157 3.36 5.73578 3.51036 4.93252 3.85844L5.72773 5.69355C6.20447 5.48697 6.85868 5.36 7.73013 5.36V3.36ZM4.93252 3.85844C4.13633 4.20346 3.48551 4.72059 3.04213 5.43L4.73812 6.49C4.93474 6.17541 5.24392 5.90321 5.72773 5.69355L4.93252 3.85844ZM3.05251 5.41373C2.61328 6.08722 2.41013 6.85848 2.41013 7.688H4.41013C4.41013 7.19485 4.52697 6.81411 4.72774 6.50627L3.05251 5.41373ZM2.41013 7.688C2.41013 8.59297 2.59908 9.42912 3.04213 10.138L4.73812 9.078C4.54117 8.76288 4.41013 8.31903 4.41013 7.688H2.41013ZM3.04213 10.138C3.47867 10.8365 4.15061 11.3989 4.9703 11.8569L5.94595 10.1111C5.31497 9.75845 4.94158 9.40352 4.73812 9.078L3.04213 10.138ZM4.9703 11.8569C5.75585 12.2959 6.78774 12.7532 8.04747 13.231L8.75678 11.361C7.54185 10.9002 6.61107 10.4827 5.94595 10.1111L4.9703 11.8569ZM8.05919 13.2354C9.35685 13.7091 10.42 14.214 11.2624 14.7429L12.3259 13.0491C11.3336 12.426 10.1354 11.8642 8.74507 11.3566L8.05919 13.2354ZM11.2854 14.7569C12.1067 15.2422 12.6777 15.8027 13.0466 16.4231L14.7657 15.4009C14.1959 14.4426 13.3589 13.6591 12.3029 13.0351L11.2854 14.7569ZM13.0568 16.4399C13.4245 17.0315 13.6421 17.8274 13.6421 18.888H15.6421C15.6421 17.5592 15.369 16.3712 14.7554 15.3841L13.0568 16.4399ZM21.6766 7.848H22.6766V6.848H21.6766V7.848ZM21.6766 25V26H22.6766V25H21.6766ZM18.8606 25H17.8606V26H18.8606V25ZM18.8606 7.848V6.848H17.8606V7.848H18.8606ZM21.4206 1.864L20.7383 2.59505L20.7634 2.61847L20.79 2.64011L21.4206 1.864ZM21.4206 4.552L20.7621 3.79942L20.75 3.80999L20.7383 3.82094L21.4206 4.552ZM19.1166 4.552L19.7989 3.82094L19.7989 3.82094L19.1166 4.552ZM19.1166 1.864L19.7716 2.61969L19.7855 2.60762L19.7989 2.59505L19.1166 1.864ZM20.6766 7.848V25H22.6766V7.848H20.6766ZM21.6766 24H18.8606V26H21.6766V24ZM19.8606 25V7.848H17.8606V25H19.8606ZM18.8606 8.848H21.6766V6.848H18.8606V8.848ZM20.3006 2.416C20.4668 2.416 20.5982 2.46425 20.7383 2.59505L22.1029 1.13294C21.6031 0.666412 20.9878 0.415998 20.3006 0.415998V2.416ZM20.79 2.64011C20.8135 2.6592 20.9326 2.76208 20.9326 3.208H22.9326C22.9326 2.41658 22.7104 1.62347 22.0512 1.08788L20.79 2.64011ZM20.9326 3.208C20.9326 3.6139 20.8228 3.7463 20.7621 3.79942L22.0791 5.30457C22.7011 4.76036 22.9326 3.99677 22.9326 3.208H20.9326ZM20.7383 3.82094C20.5982 3.95175 20.4668 4 20.3006 4V6C20.9878 6 21.6031 5.74958 22.1029 5.28305L20.7383 3.82094ZM20.3006 4C20.0646 4 19.9196 3.93359 19.7989 3.82094L18.4343 5.28305C18.9536 5.76774 19.598 6 20.3006 6V4ZM19.7989 3.82094C19.7472 3.77262 19.6366 3.63284 19.6366 3.208H17.6366C17.6366 3.97783 17.8461 4.73405 18.4343 5.28305L19.7989 3.82094ZM19.6366 3.208C19.6366 2.74275 19.7563 2.63291 19.7716 2.61969L18.4617 1.10831C17.837 1.64975 17.6366 2.43591 17.6366 3.208H19.6366ZM19.7989 2.59505C19.9196 2.48241 20.0646 2.416 20.3006 2.416V0.415998C19.598 0.415998 18.9536 0.648253 18.4343 1.13294L19.7989 2.59505ZM50.2786 9.032L49.5563 9.72361L49.5638 9.73129L50.2786 9.032ZM51.7186 25V26H52.7186V25H51.7186ZM48.9346 25H47.9346V26H48.9346V25ZM48.0706 10.92L47.2945 11.5506L47.3004 11.5578L47.3063 11.5649L48.0706 10.92ZM41.8626 11.336L41.0648 10.7332L41.0604 10.7389L41.0562 10.7446L41.8626 11.336ZM40.8066 25V26H41.8066V25H40.8066ZM38.0226 25H37.0226V26H38.0226V25ZM37.6386 11.72L36.7145 12.1024L36.7195 12.1139L37.6386 11.72ZM36.4866 10.344L36.9905 9.48022L36.9905 9.48022L36.4866 10.344ZM31.7826 10.632L32.3614 11.4475L32.37 11.4414L32.3785 11.4351L31.7826 10.632ZM30.3426 12.712L29.3918 12.4024L29.3885 12.4125L29.3854 12.4226L30.3426 12.712ZM29.9266 25V26H30.9266V25H29.9266ZM27.1106 25H26.1106V26H27.1106V25ZM27.1106 7.848V6.848H26.1106V7.848H27.1106ZM29.3826 7.848L30.3671 7.67268L30.2203 6.848H29.3826V7.848ZM29.7986 10.184L28.8141 10.3593L28.961 11.184H29.7986V10.184ZM29.9586 10.184V11.184H30.5214L30.8134 10.703L29.9586 10.184ZM31.2706 8.712L31.8706 9.51202L31.8757 9.50816L31.2706 8.712ZM38.3106 8.232L37.8378 9.1132L37.8466 9.11783L38.3106 8.232ZM40.2626 10.408L39.3384 10.7898L39.5937 11.408H40.2626V10.408ZM40.4226 10.408V11.408H40.9952L41.285 10.9142L40.4226 10.408ZM42.7586 8.232L42.3347 7.32628L42.3272 7.32986L42.7586 8.232ZM45.9266 8.528C47.7063 8.528 48.85 8.98588 49.5563 9.72357L51.0009 8.34043C49.7872 7.07279 48.0296 6.528 45.9266 6.528V8.528ZM49.5638 9.73129C50.256 10.4389 50.7186 11.7209 50.7186 13.832H52.7186C52.7186 11.5058 52.2212 9.58775 50.9935 8.33271L49.5638 9.73129ZM50.7186 13.832V25H52.7186V13.832H50.7186ZM51.7186 24H48.9346V26H51.7186V24ZM49.9346 25V13.96H47.9346V25H49.9346ZM49.9346 13.96C49.9346 12.4947 49.6236 11.2099 48.8349 10.2751L47.3063 11.5649C47.6696 11.9955 47.9346 12.7373 47.9346 13.96H49.9346ZM48.8467 10.2894C48.0401 9.29666 46.8279 8.896 45.4466 8.896V10.896C46.4547 10.896 46.9918 11.178 47.2945 11.5506L48.8467 10.2894ZM45.4466 8.896C43.5974 8.896 42.0449 9.43587 41.0648 10.7332L42.6605 11.9388C43.131 11.3161 43.9678 10.896 45.4466 10.896V8.896ZM41.0562 10.7446C40.1749 11.9465 39.8066 13.5886 39.8066 15.528H41.8066C41.8066 13.7981 42.1424 12.6455 42.669 11.9274L41.0562 10.7446ZM39.8066 15.528V25H41.8066V15.528H39.8066ZM40.8066 24H38.0226V26H40.8066V24ZM39.0226 25V13.96H37.0226V25H39.0226ZM39.0226 13.96C39.0226 12.9766 38.8832 12.0855 38.5578 11.3261L36.7195 12.1139C36.906 12.5492 37.0226 13.1514 37.0226 13.96H39.0226ZM38.5626 11.3376C38.2344 10.5444 37.7156 9.90319 36.9905 9.48022L35.9828 11.2078C36.2817 11.3821 36.5309 11.6583 36.7146 12.1024L38.5626 11.3376ZM36.9905 9.48022C36.2794 9.06542 35.4279 8.896 34.5026 8.896V10.896C35.1987 10.896 35.6698 11.0252 35.9828 11.2078L36.9905 9.48022ZM34.5026 8.896C33.2195 8.896 32.0772 9.16827 31.1868 9.8289L32.3785 11.4351C32.8107 11.1144 33.4818 10.896 34.5026 10.896V8.896ZM31.2039 9.81649C30.336 10.4324 29.7439 11.3207 29.3918 12.4024L31.2935 13.0216C31.5387 12.2686 31.9066 11.7703 32.3614 11.4475L31.2039 9.81649ZM29.3854 12.4226C29.0709 13.4631 28.9266 14.6981 28.9266 16.104H30.9266C30.9266 14.8219 31.0597 13.7956 31.2998 13.0014L29.3854 12.4226ZM28.9266 16.104V25H30.9266V16.104H28.9266ZM29.9266 24H27.1106V26H29.9266V24ZM28.1106 25V7.848H26.1106V25H28.1106ZM27.1106 8.848H29.3826V6.848H27.1106V8.848ZM28.3981 8.02332L28.8141 10.3593L30.7831 10.0087L30.3671 7.67268L28.3981 8.02332ZM29.7986 11.184H29.9586V9.184H29.7986V11.184ZM30.8134 10.703C31.116 10.2047 31.4697 9.81268 31.8706 9.512L30.6706 7.912C30.0475 8.37932 29.5266 8.96868 29.1038 9.66502L30.8134 10.703ZM31.8757 9.50816C32.3139 9.17512 32.793 8.93131 33.318 8.77383L32.7433 6.85817C31.9882 7.08469 31.294 7.43821 30.6655 7.91584L31.8757 9.50816ZM33.318 8.77383C33.8627 8.6104 34.4272 8.528 35.0146 8.528V6.528C34.2368 6.528 33.4785 6.6376 32.7433 6.85817L33.318 8.77383ZM35.0146 8.528C36.225 8.528 37.1488 8.74346 37.8378 9.11316L38.7834 7.35084C37.7231 6.78188 36.4496 6.528 35.0146 6.528V8.528ZM37.8466 9.11783C38.5239 9.4726 39.0178 10.0135 39.3384 10.7898L41.1869 10.0262C40.6968 8.83978 39.8894 7.93007 38.7746 7.34617L37.8466 9.11783ZM40.2626 11.408H40.4226V9.408H40.2626V11.408ZM41.285 10.9142C41.765 10.0965 42.3972 9.51332 43.1901 9.13413L42.3272 7.32986C41.1573 7.88934 40.2322 8.75684 39.5602 9.9018L41.285 10.9142ZM43.1826 9.13769C44.0523 8.7306 44.9635 8.528 45.9266 8.528V6.528C44.6711 6.528 43.4703 6.79473 42.3347 7.32631L43.1826 9.13769ZM70.2649 9.736L69.5102 10.3922L69.5157 10.3983L70.2649 9.736ZM71.3209 21.32L70.407 20.9139L70.404 20.9207L71.3209 21.32ZM68.8569 24.328L69.3915 25.1731L69.3959 25.1703L68.8569 24.328ZM62.8089 24.968L62.4838 25.9137L62.4838 25.9137L62.8089 24.968ZM61.0489 24.072L60.4156 24.846L60.4347 24.8615L60.4545 24.8762L61.0489 24.072ZM59.8329 22.824L60.6283 22.218L60.3281 21.824H59.8329V22.824ZM59.6409 22.824V21.824H58.5163L58.6477 22.9408L59.6409 22.824ZM59.7689 24.2L58.7718 24.2767L58.7718 24.2767L59.7689 24.2ZM59.8329 32.68V33.68H60.8329V32.68H59.8329ZM57.0169 32.68H56.0169V33.68H57.0169V32.68ZM57.0169 7.848V6.848H56.0169V7.848H57.0169ZM59.3209 7.848L60.3076 7.68579L60.1699 6.848H59.3209V7.848ZM59.7049 10.184L58.7181 10.3462L58.8558 11.184H59.7049V10.184ZM59.8329 10.184V11.184H60.3554L60.6538 10.7551L59.8329 10.184ZM61.0489 8.84L60.412 8.06904L60.4035 8.07602L60.3953 8.08318L61.0489 8.84ZM62.7769 7.88L62.4518 6.93427L62.4425 6.93757L62.7769 7.88ZM61.8809 10.568L62.3992 11.4232L62.4085 11.4175L62.4178 11.4117L61.8809 10.568ZM59.8329 15.848L58.833 15.8321L58.8329 15.8401V15.848H59.8329ZM60.2809 19.976L59.3242 20.2672L59.3242 20.2672L60.2809 19.976ZM61.7849 22.216L61.1966 23.0248L61.2082 23.033L61.7849 22.216ZM67.2889 22.12L66.644 21.3557L66.638 21.3608L66.6321 21.3659L67.2889 22.12ZM68.7929 19.784L67.8461 19.4617L67.8421 19.474L68.7929 19.784ZM68.1529 11.656L67.3091 12.1929L67.3162 12.2037L68.1529 11.656ZM65.1769 8.528C67.0265 8.528 68.4372 9.15819 69.5103 10.3922L71.0195 9.07982C69.5325 7.36981 67.5513 6.528 65.1769 6.528V8.528ZM69.5157 10.3983C70.5904 11.614 71.2169 13.5503 71.2169 16.392H73.2169C73.2169 13.303 72.542 10.802 71.0141 9.07366L69.5157 10.3983ZM71.2169 16.392C71.2169 18.236 70.9325 19.7316 70.4071 20.9139L72.2347 21.7261C72.9039 20.2204 73.2169 18.4306 73.2169 16.392H71.2169ZM70.404 20.9207C69.8959 22.0876 69.1949 22.9244 68.3178 23.4857L69.3959 25.1703C70.6521 24.3663 71.5939 23.1977 72.2377 21.7193L70.404 20.9207ZM68.3222 23.4829C67.4605 24.0281 66.415 24.32 65.1449 24.32V26.32C66.7334 26.32 68.1626 25.9506 69.3915 25.1731L68.3222 23.4829ZM65.1449 24.32C64.3582 24.32 63.6926 24.2143 63.134 24.0223L62.4838 25.9137C63.2905 26.191 64.1822 26.32 65.1449 26.32V24.32ZM63.134 24.0223C62.5306 23.8149 62.0385 23.5599 61.6433 23.2678L60.4545 24.8762C61.0406 25.3094 61.7218 25.6518 62.4838 25.9137L63.134 24.0223ZM61.6821 23.298C61.2686 22.9597 60.9189 22.5993 60.6283 22.218L59.0374 23.43C59.4296 23.9447 59.8905 24.4163 60.4156 24.846L61.6821 23.298ZM59.8329 21.824H59.6409V23.824H59.8329V21.824ZM58.6477 22.9408C58.6882 23.2852 58.7297 23.7293 58.7718 24.2767L60.7659 24.1233C60.7227 23.5614 60.6788 23.0881 60.634 22.7072L58.6477 22.9408ZM58.7718 24.2767C58.8132 24.8145 58.8329 25.2677 58.8329 25.64H60.8329C60.8329 25.2017 60.8099 24.6948 60.7659 24.1233L58.7718 24.2767ZM58.8329 25.64V32.68H60.8329V25.64H58.8329ZM59.8329 31.68H57.0169V33.68H59.8329V31.68ZM58.0169 32.68V7.848H56.0169V32.68H58.0169ZM57.0169 8.848H59.3209V6.848H57.0169V8.848ZM58.3341 8.01021L58.7181 10.3462L60.6916 10.0218L60.3076 7.68579L58.3341 8.01021ZM59.7049 11.184H59.8329V9.184H59.7049V11.184ZM60.6538 10.7551C60.9456 10.3356 61.2941 9.94953 61.7025 9.59682L60.3953 8.08318C59.865 8.54113 59.4028 9.05106 59.012 9.61293L60.6538 10.7551ZM61.6858 9.61096C62.0776 9.28725 62.5488 9.02203 63.1113 8.82243L62.4425 6.93757C61.6823 7.2073 61.0015 7.58208 60.412 8.06904L61.6858 9.61096ZM63.102 8.82569C63.6561 8.63521 64.3416 8.528 65.1769 8.528V6.528C64.1775 6.528 63.263 6.65546 62.4518 6.93431L63.102 8.82569ZM64.6649 8.896C63.3924 8.896 62.2586 9.14233 61.344 9.72434L62.4178 11.4117C62.9112 11.0977 63.6333 10.896 64.6649 10.896V8.896ZM61.3626 9.7128C60.4389 10.2726 59.793 11.118 59.4058 12.1764L61.284 12.8636C61.5368 12.1727 61.9148 11.7167 62.3992 11.4232L61.3626 9.7128ZM59.4058 12.1764C59.0344 13.1915 58.8554 14.4215 58.833 15.8321L60.8327 15.8639C60.853 14.5865 61.0154 13.5978 61.284 12.8636L59.4058 12.1764ZM58.8329 15.848V16.392H60.8329V15.848H58.8329ZM58.8329 16.392C58.8329 17.8647 58.9884 19.1637 59.3242 20.2672L61.2375 19.6848C60.9761 18.8257 60.8329 17.7353 60.8329 16.392H58.8329ZM59.3242 20.2672C59.6745 21.4181 60.287 22.3631 61.1967 23.0247L62.373 21.4073C61.8748 21.0449 61.4846 20.4966 61.2375 19.6848L59.3242 20.2672ZM61.2082 23.033C62.1569 23.7027 63.3639 23.984 64.7289 23.984V21.984C63.6191 21.984 62.8635 21.7533 62.3616 21.399L61.2082 23.033ZM64.7289 23.984C65.9669 23.984 67.0686 23.638 67.9457 22.8741L66.6321 21.3659C66.1865 21.754 65.5815 21.984 64.7289 21.984V23.984ZM67.9337 22.8843C68.7796 22.1706 69.3751 21.2242 69.7436 20.094L67.8421 19.474C67.5707 20.3064 67.1634 20.9174 66.644 21.3557L67.9337 22.8843ZM69.7395 20.1063C70.1227 18.9808 70.3049 17.7275 70.3049 16.36H68.3049C68.3049 17.5525 68.1457 18.5819 67.8462 19.4617L69.7395 20.1063ZM70.3049 16.36C70.3049 14.2775 69.8988 12.4974 68.9896 11.1083L67.3162 12.2037C67.943 13.1613 68.3049 14.5171 68.3049 16.36H70.3049ZM68.9965 11.1191C68.0389 9.6142 66.531 8.896 64.6649 8.896V10.896C65.9561 10.896 66.7736 11.3511 67.3092 12.1929L68.9965 11.1191ZM79.5204 25V26H80.5204V25H79.5204ZM76.7044 25H75.7044V26H76.7044V25ZM76.7044 0.679998V-0.320002H75.7044V0.679998H76.7044ZM79.5204 0.679998H80.5204V-0.320002H79.5204V0.679998ZM79.5204 24H76.7044V26H79.5204V24ZM77.7044 25V0.679998H75.7044V25H77.7044ZM76.7044 1.68H79.5204V-0.320002H76.7044V1.68ZM78.5204 0.679998V25H80.5204V0.679998H78.5204ZM95.3544 8.488L94.8322 9.34088L94.8399 9.34549L95.3544 8.488ZM97.7864 11.208L96.8823 11.6354L96.887 11.6453L96.8919 11.6552L97.7864 11.208ZM98.6504 16.968V17.968H99.6504V16.968H98.6504ZM86.9064 16.968V15.968H85.8842L85.9066 16.99L86.9064 16.968ZM88.3784 21.416L87.6412 22.0917L87.6486 22.0997L87.6561 22.1076L88.3784 21.416ZM95.2584 22.632L95.4832 23.6064L95.4921 23.6043L95.5009 23.6021L95.2584 22.632ZM97.8824 21.736H98.8824V20.2195L97.4885 20.8169L97.8824 21.736ZM97.8824 24.2L98.2844 25.1156L98.8824 24.8531V24.2H97.8824ZM95.2904 25.032L95.0943 24.0514L95.0825 24.0538L95.0709 24.0564L95.2904 25.032ZM87.9304 24.328L87.459 25.21L87.4652 25.2132L87.9304 24.328ZM85.0184 21.384L84.1298 21.8426L84.1342 21.8513L84.1388 21.8598L85.0184 21.384ZM84.9224 11.72L84.0194 11.29L84.014 11.3019L84.9224 11.72ZM87.5784 8.616L87.0455 7.76974L87.0384 7.77431L87.5784 8.616ZM88.3464 11.144L87.604 10.474L87.6031 10.475L88.3464 11.144ZM86.9704 14.728L85.9751 14.6312L85.8684 15.728H86.9704V14.728ZM95.7064 14.728V15.728H96.7064V14.728H95.7064ZM95.2584 12.168L94.3337 12.5487L94.3337 12.5487L95.2584 12.168ZM93.8824 10.472L93.3011 11.2857L93.3175 11.2974L93.3343 11.3085L93.8824 10.472ZM91.5784 8.528C92.9033 8.528 93.9731 8.81483 94.8322 9.34085L95.8765 7.63515C94.645 6.88117 93.1974 6.528 91.5784 6.528V8.528ZM94.8399 9.34549C95.7294 9.87922 96.4083 10.6326 96.8823 11.6354L98.6904 10.7806C98.0552 9.43674 97.1127 8.37678 95.8689 7.63051L94.8399 9.34549ZM96.8919 11.6552C97.3855 12.6423 97.6504 13.8379 97.6504 15.272H99.6504C99.6504 13.5915 99.3393 12.0777 98.6808 10.7608L96.8919 11.6552ZM97.6504 15.272V16.968H99.6504V15.272H97.6504ZM98.6504 15.968H86.9064V17.968H98.6504V15.968ZM85.9066 16.99C85.9525 19.0777 86.4836 20.8288 87.6412 22.0917L89.1155 20.7403C88.3958 19.9552 87.9456 18.7409 87.9061 16.946L85.9066 16.99ZM87.6561 22.1076C88.8465 23.3509 90.4659 23.92 92.3784 23.92V21.92C90.8775 21.92 89.8303 21.4865 89.1007 20.7244L87.6561 22.1076ZM92.3784 23.92C93.5225 23.92 94.5606 23.8193 95.4832 23.6064L95.0335 21.6576C94.2921 21.8287 93.4102 21.92 92.3784 21.92V23.92ZM95.5009 23.6021C96.4112 23.3746 97.3365 23.0579 98.2763 22.6551L97.4885 20.8169C96.6363 21.1821 95.8122 21.4628 95.0158 21.6619L95.5009 23.6021ZM96.8824 21.736V24.2H98.8824V21.736H96.8824ZM97.4804 23.2844C96.6654 23.6421 95.8703 23.8962 95.0943 24.0514L95.4865 26.0126C96.4171 25.8265 97.35 25.5259 98.2844 25.1156L97.4804 23.2844ZM95.0709 24.0564C94.3092 24.2278 93.3732 24.32 92.2504 24.32V26.32C93.4742 26.32 94.5649 26.2202 95.5099 26.0076L95.0709 24.0564ZM92.2504 24.32C90.7682 24.32 89.4917 24.0187 88.3955 23.4428L87.4652 25.2132C88.8864 25.9599 90.4899 26.32 92.2504 26.32V24.32ZM88.4018 23.4461C87.347 22.8823 86.514 22.047 85.8979 20.9082L84.1388 21.8598C84.9308 23.3237 86.0391 24.451 87.459 25.2099L88.4018 23.4461ZM85.907 20.9254C85.3149 19.7782 84.9944 18.3339 84.9944 16.552H82.9944C82.9944 18.5675 83.3565 20.3445 84.1298 21.8426L85.907 20.9254ZM84.9944 16.552C84.9944 14.7815 85.2864 13.3207 85.8308 12.1381L84.014 11.3019C83.321 12.8073 82.9944 14.5678 82.9944 16.552H84.9944ZM85.8252 12.1499C86.394 10.9556 87.1613 10.0716 88.1183 9.45769L87.0384 7.77431C85.7341 8.61104 84.7308 9.79645 84.0195 11.2901L85.8252 12.1499ZM88.1112 9.46223C89.086 8.84843 90.2303 8.528 91.5784 8.528V6.528C89.8971 6.528 88.3747 6.9329 87.0456 7.76977L88.1112 9.46223ZM91.5464 8.832C89.9634 8.832 88.6105 9.35865 87.604 10.474L89.0888 11.814C89.6609 11.18 90.4414 10.832 91.5464 10.832V8.832ZM87.6031 10.475C86.6501 11.5339 86.138 12.9549 85.9751 14.6312L87.9657 14.8248C88.1014 13.4291 88.5067 12.4607 89.0897 11.813L87.6031 10.475ZM86.9704 15.728H95.7064V13.728H86.9704V15.728ZM96.7064 14.728C96.7064 13.6477 96.5422 12.6595 96.1831 11.7872L94.3337 12.5487C94.5719 13.1271 94.7064 13.8456 94.7064 14.728H96.7064ZM96.1831 11.7872C95.8125 10.8874 95.2281 10.1582 94.4304 9.63554L93.3343 11.3085C93.7739 11.5965 94.1069 11.9979 94.3337 12.5487L96.1831 11.7872ZM94.4636 9.65827C93.6513 9.07802 92.651 8.832 91.5464 8.832V10.832C92.3617 10.832 92.9188 11.0126 93.3011 11.2857L94.4636 9.65827ZM115.369 22.376L116.186 22.952L116.192 22.9433L115.369 22.376ZM112.521 24.552L112.139 23.628L112.133 23.6304L112.521 24.552ZM105.737 25.192L105.626 26.1859L105.629 26.1862L105.737 25.192ZM103.625 24.84L103.367 25.8062L103.382 25.8103L103.398 25.8138L103.625 24.84ZM101.929 24.232H100.929V24.8622L101.497 25.1341L101.929 24.232ZM101.929 21.48L102.335 20.5662L100.929 19.9412V21.48H101.929ZM104.777 22.408L104.539 23.3792L104.543 23.3802L104.777 22.408ZM111.177 22.376L110.814 21.444L110.814 21.444L111.177 22.376ZM112.905 21.096L112.083 20.5268L112.083 20.5268L112.905 21.096ZM113.001 17.256L112.153 17.786L112.153 17.786L113.001 17.256ZM111.337 15.848L110.833 16.7118L110.847 16.72L110.861 16.7277L111.337 15.848ZM108.105 14.44L107.758 15.3781L107.771 15.3827L108.105 14.44ZM105.513 13.288L105.006 14.1499L105.021 14.1587L105.036 14.1669L105.513 13.288ZM102.569 10.024L101.623 10.3491L101.628 10.3622L101.633 10.3751L102.569 10.024ZM103.145 4.552L103.955 5.13901L103.961 5.12946L103.145 4.552ZM105.705 2.536L105.315 1.61501L105.309 1.61779L105.705 2.536ZM112.969 2.184L113.188 1.20828L113.188 1.20828L112.969 2.184ZM115.817 3.112L116.757 3.45374L117.074 2.58111L116.227 2.20008L115.817 3.112ZM114.921 5.576L114.524 6.49386L115.498 6.91506L115.861 5.91774L114.921 5.576ZM112.329 4.712L112.081 5.68082L112.086 5.68214L112.329 4.712ZM105.609 5.96L106.446 6.50627L106.452 6.49818L106.457 6.49L105.609 5.96ZM105.609 9.608L106.457 9.078L106.457 9.078L105.609 9.608ZM107.177 10.984L106.689 11.8569L106.689 11.8569L107.177 10.984ZM110.121 12.296L109.766 13.2311L109.778 13.2354L110.121 12.296ZM113.513 13.896L112.981 14.7429L112.993 14.7501L113.004 14.7569L113.513 13.896ZM115.625 15.912L114.765 16.4231L114.77 16.4316L114.776 16.4399L115.625 15.912ZM115.361 18.888C115.361 20.0863 115.073 21.0426 114.545 21.8087L116.192 22.9433C116.987 21.7894 117.361 20.4204 117.361 18.888H115.361ZM114.551 21.8C114.016 22.5595 113.23 23.1762 112.139 23.628L112.903 25.476C114.286 24.9038 115.399 24.0698 116.186 22.952L114.551 21.8ZM112.133 23.6304C111.067 24.079 109.765 24.32 108.201 24.32V26.32C109.965 26.32 111.543 26.049 112.909 25.4736L112.133 23.6304ZM108.201 24.32C107.381 24.32 106.595 24.279 105.844 24.1978L105.629 26.1862C106.457 26.2757 107.314 26.32 108.201 26.32V24.32ZM105.847 24.1981C105.112 24.1164 104.448 24.0051 103.852 23.8662L103.398 25.8138C104.082 25.9736 104.826 26.0969 105.626 26.1859L105.847 24.1981ZM103.883 23.8738C103.29 23.7157 102.785 23.5328 102.36 23.3299L101.497 25.1341C102.054 25.4005 102.68 25.6229 103.367 25.8062L103.883 23.8738ZM102.929 24.232V21.48H100.929V24.232H102.929ZM101.523 22.3938C102.361 22.7664 103.371 23.0927 104.539 23.3792L105.015 21.4368C103.922 21.1686 103.033 20.8763 102.335 20.5662L101.523 22.3938ZM104.543 23.3802C105.773 23.6765 107.036 23.824 108.329 23.824V21.824C107.19 21.824 106.084 21.6942 105.011 21.4358L104.543 23.3802ZM108.329 23.824C109.54 23.824 110.621 23.6649 111.539 23.308L110.814 21.444C110.196 21.6844 109.379 21.824 108.329 21.824V23.824ZM111.539 23.308C112.452 22.9532 113.206 22.4172 113.727 21.6652L112.083 20.5268C111.835 20.8841 111.438 21.2015 110.814 21.444L111.539 23.308ZM113.727 21.6652C114.239 20.9256 114.481 20.0714 114.481 19.144H112.481C112.481 19.7099 112.339 20.1571 112.083 20.5268L113.727 21.6652ZM114.481 19.144C114.481 18.2542 114.289 17.4307 113.849 16.726L112.153 17.786C112.352 18.1053 112.481 18.5405 112.481 19.144H114.481ZM113.849 16.726C113.403 16.0127 112.685 15.4402 111.812 14.9683L110.861 16.7277C111.567 17.1092 111.959 17.4753 112.153 17.786L113.849 16.726ZM111.841 14.9842C110.995 14.4909 109.851 13.9972 108.438 13.4973L107.771 15.3827C109.132 15.8641 110.143 16.3091 110.833 16.7118L111.841 14.9842ZM108.452 13.502C107.505 13.1523 106.686 12.7872 105.99 12.4091L105.036 14.1669C105.833 14.5995 106.742 15.0024 107.758 15.378L108.452 13.502ZM106.02 12.4261C105.366 12.0415 104.839 11.6211 104.425 11.1709L102.953 12.5251C103.52 13.1416 104.209 13.6811 105.006 14.1499L106.02 12.4261ZM104.425 11.1709C104.022 10.7329 103.716 10.2358 103.505 9.67288L101.633 10.3751C101.933 11.1776 102.375 11.8964 102.953 12.5251L104.425 11.1709ZM103.515 9.69892C103.323 9.14261 103.217 8.46699 103.217 7.656H101.217C101.217 8.63701 101.345 9.54006 101.623 10.3491L103.515 9.69892ZM103.217 7.656C103.217 6.61724 103.478 5.79628 103.954 5.13897L102.335 3.96503C101.574 5.01438 101.217 6.26276 101.217 7.656H103.217ZM103.961 5.12946C104.463 4.42044 105.163 3.8587 106.101 3.45421L105.309 1.61779C104.07 2.15197 103.064 2.93423 102.328 3.97453L103.961 5.12946ZM106.095 3.45697C107.06 3.04857 108.193 2.832 109.513 2.832V0.831999C107.974 0.831999 106.569 1.08476 105.315 1.61503L106.095 3.45697ZM109.513 2.832C110.71 2.832 111.788 2.9437 112.75 3.15971L113.188 1.20828C112.059 0.954962 110.833 0.831999 109.513 0.831999V2.832ZM112.75 3.15971C113.739 3.3817 114.623 3.67122 115.407 4.02392L116.227 2.20008C115.304 1.78478 114.29 1.45563 113.188 1.20828L112.75 3.15971ZM114.877 2.77026L113.981 5.23426L115.861 5.91774L116.757 3.45374L114.877 2.77026ZM115.318 4.65814C114.473 4.29273 113.556 3.98811 112.571 3.74186L112.086 5.68214C112.979 5.90522 113.79 6.1766 114.524 6.49386L115.318 4.65814ZM112.577 3.7432C111.574 3.48663 110.53 3.36 109.449 3.36V5.36C110.373 5.36 111.249 5.46803 112.081 5.6808L112.577 3.7432ZM109.449 3.36C108.4 3.36 107.455 3.51036 106.651 3.85844L107.446 5.69355C107.923 5.48697 108.577 5.36 109.449 5.36V3.36ZM106.651 3.85844C105.855 4.20346 105.204 4.72059 104.761 5.43L106.457 6.49C106.653 6.17541 106.963 5.90321 107.446 5.69355L106.651 3.85844ZM104.771 5.41373C104.332 6.08722 104.129 6.85848 104.129 7.688H106.129C106.129 7.19485 106.246 6.81411 106.446 6.50627L104.771 5.41373ZM104.129 7.688C104.129 8.59297 104.318 9.42912 104.761 10.138L106.457 9.078C106.26 8.76288 106.129 8.31903 106.129 7.688H104.129ZM104.761 10.138C105.197 10.8365 105.869 11.3989 106.689 11.8569L107.665 10.1111C107.034 9.75845 106.66 9.40352 106.457 9.078L104.761 10.138ZM106.689 11.8569C107.475 12.2959 108.506 12.7532 109.766 13.231L110.476 11.361C109.261 10.9002 108.33 10.4827 107.665 10.1111L106.689 11.8569ZM109.778 13.2354C111.076 13.7091 112.139 14.214 112.981 14.7429L114.045 13.0491C113.052 12.426 111.854 11.8642 110.464 11.3566L109.778 13.2354ZM113.004 14.7569C113.825 15.2422 114.396 15.8027 114.765 16.4231L116.484 15.4009C115.915 14.4426 115.078 13.6591 114.022 13.0351L113.004 14.7569ZM114.776 16.4399C115.143 17.0315 115.361 17.8274 115.361 18.888H117.361C117.361 17.5592 117.088 16.3712 116.474 15.3841L114.776 16.4399ZM127.619 22.92L127.761 23.9099L127.784 23.9067L127.806 23.9023L127.619 22.92ZM128.707 22.664H129.707V21.31L128.413 21.7082L128.707 22.664ZM128.707 24.808L129.155 25.7024L129.707 25.426V24.808H128.707ZM127.427 25.16L127.275 24.1716L127.257 24.1745L127.239 24.178L127.427 25.16ZM123.331 24.872L122.937 25.7911L122.953 25.7978L122.969 25.804L123.331 24.872ZM121.507 23.24L120.654 23.7614L121.507 23.24ZM120.803 10.024H121.803V9.024H120.803V10.024ZM118.371 10.024H117.371V11.024H118.371V10.024ZM118.371 8.68L117.958 7.76963L117.371 8.03608V8.68H118.371ZM120.835 7.56L121.249 8.47037L121.659 8.28401L121.791 7.8535L120.835 7.56ZM121.955 3.912V2.912H121.216L120.999 3.6185L121.955 3.912ZM123.619 3.912H124.619V2.912H123.619V3.912ZM123.619 7.848H122.619V8.848H123.619V7.848ZM128.579 7.848H129.579V6.848H128.579V7.848ZM128.579 10.024V11.024H129.579V10.024H128.579ZM123.619 10.024V9.024H122.619V10.024H123.619ZM124.355 22.28L123.633 22.9719L123.648 22.9873L123.663 23.002L124.355 22.28ZM126.307 24.016C126.784 24.016 127.269 23.9802 127.761 23.9099L127.478 21.9301C127.074 21.9878 126.684 22.016 126.307 22.016V24.016ZM127.806 23.9023C128.273 23.8135 128.675 23.7202 129.001 23.6198L128.413 21.7082C128.185 21.7785 127.862 21.8558 127.432 21.9377L127.806 23.9023ZM127.707 22.664V24.808H129.707V22.664H127.707ZM128.26 23.9136C128.096 23.9955 127.787 24.0929 127.275 24.1716L127.579 26.1484C128.177 26.0564 128.721 25.9192 129.155 25.7024L128.26 23.9136ZM127.239 24.178C126.74 24.2739 126.27 24.32 125.827 24.32V26.32C126.409 26.32 127.006 26.2594 127.616 26.142L127.239 24.178ZM125.827 24.32C125.044 24.32 124.337 24.1899 123.694 23.94L122.969 25.804C123.862 26.1514 124.818 26.32 125.827 26.32V24.32ZM123.725 23.9529C123.19 23.7233 122.734 23.3295 122.361 22.7185L120.654 23.7614C121.219 24.6865 121.98 25.3807 122.937 25.7911L123.725 23.9529ZM122.361 22.7185C122.026 22.1707 121.803 21.3022 121.803 20.008H119.803C119.803 21.4871 120.05 22.7733 120.654 23.7614L122.361 22.7185ZM121.803 20.008V10.024H119.803V20.008H121.803ZM120.803 9.024H118.371V11.024H120.803V9.024ZM119.371 10.024V8.68H117.371V10.024H119.371ZM118.785 9.59037L121.249 8.47037L120.422 6.64963L117.958 7.76963L118.785 9.59037ZM121.791 7.8535L122.911 4.2055L120.999 3.6185L119.879 7.2665L121.791 7.8535ZM121.955 4.912H123.619V2.912H121.955V4.912ZM122.619 3.912V7.848H124.619V3.912H122.619ZM123.619 8.848H128.579V6.848H123.619V8.848ZM127.579 7.848V10.024H129.579V7.848H127.579ZM128.579 9.024H123.619V11.024H128.579V9.024ZM122.619 10.024V19.944H124.619V10.024H122.619ZM122.619 19.944C122.619 21.1263 122.895 22.2017 123.633 22.9719L125.077 21.5881C124.834 21.3343 124.619 20.8523 124.619 19.944H122.619ZM123.663 23.002C124.383 23.6919 125.292 24.016 126.307 24.016V22.016C125.744 22.016 125.351 21.8495 125.047 21.558L123.663 23.002ZM143.278 8.936L143.953 8.19819L143.953 8.19819L143.278 8.936ZM144.782 25V26H145.782V25H144.782ZM142.734 25L141.758 25.2183L141.933 26H142.734V25ZM142.19 22.568L143.166 22.3497L142.991 21.568H142.19V22.568ZM142.062 22.568V21.568H141.579L141.278 21.9466L142.062 22.568ZM140.526 24.136L141.147 24.9201L141.151 24.9169L140.526 24.136ZM138.734 25.032L138.463 24.0693L138.455 24.0717L138.734 25.032ZM133.518 24.776L133.109 25.6889L133.118 25.6927L133.518 24.776ZM131.598 23.112L130.745 23.6335L130.751 23.6442L131.598 23.112ZM132.91 16.296L133.474 17.122L133.482 17.1158L132.91 16.296ZM139.118 14.76L139.148 15.7595L139.151 15.7595L139.118 14.76ZM142.03 14.664L142.063 15.6635L143.03 15.6316V14.664H142.03ZM141.102 10.664L140.434 11.4086L140.434 11.4086L141.102 10.664ZM135.918 10.248L136.219 11.2016L136.23 11.198L136.242 11.1942L135.918 10.248ZM133.646 11.144L132.72 11.5226L133.124 12.5085L134.082 12.0438L133.646 11.144ZM132.782 9.032L132.305 8.15315L131.517 8.58087L131.856 9.41063L132.782 9.032ZM135.438 8.008L135.699 8.97323L135.709 8.9707L135.718 8.968L135.438 8.008ZM139.47 16.712L139.432 15.7127L139.43 15.7128L139.47 16.712ZM135.022 17.736L134.439 16.9236L134.429 16.9309L135.022 17.736ZM134.67 22.376L134.056 23.1654L134.063 23.1707L134.07 23.176L134.67 22.376ZM140.558 21.864L141.193 22.6365L141.203 22.628L140.558 21.864ZM141.998 16.616H142.998V15.5773L141.96 15.6167L141.998 16.616ZM138.638 8.56C140.609 8.56 141.862 8.99601 142.603 9.6738L143.953 8.19819C142.688 7.04132 140.849 6.56 138.638 6.56V8.56ZM142.603 9.6738C143.317 10.3267 143.782 11.4607 143.782 13.32H145.782C145.782 11.1687 145.245 9.37994 143.953 8.19819L142.603 9.6738ZM143.782 13.32V25H145.782V13.32H143.782ZM144.782 24H142.734V26H144.782V24ZM143.71 24.7817L143.166 22.3497L141.214 22.7863L141.758 25.2183L143.71 24.7817ZM142.19 21.568H142.062V23.568H142.19V21.568ZM141.278 21.9466C140.827 22.5152 140.367 22.9821 139.901 23.3551L141.151 24.9169C141.751 24.4366 142.315 23.8581 142.845 23.1894L141.278 21.9466ZM139.905 23.352C139.505 23.6684 139.03 23.9101 138.463 24.0693L139.005 25.9947C139.804 25.7699 140.522 25.4143 141.147 24.92L139.905 23.352ZM138.455 24.0717C137.912 24.2293 137.202 24.32 136.302 24.32V26.32C137.322 26.32 138.233 26.2187 139.013 25.9923L138.455 24.0717ZM136.302 24.32C135.398 24.32 134.608 24.1604 133.917 23.8593L133.118 25.6927C134.092 26.1169 135.158 26.32 136.302 26.32V24.32ZM133.926 23.8632C133.295 23.5807 132.808 23.1578 132.445 22.5798L130.751 23.6442C131.327 24.5595 132.12 25.246 133.11 25.6888L133.926 23.8632ZM132.451 22.5905C132.101 22.0179 131.894 21.2508 131.894 20.232H129.894C129.894 21.5172 130.156 22.6701 130.745 23.6334L132.451 22.5905ZM131.894 20.232C131.894 18.8366 132.418 17.8424 133.474 17.1219L132.346 15.47C130.714 16.5843 129.894 18.214 129.894 20.232H131.894ZM133.482 17.1158C134.59 16.3422 136.426 15.8427 139.148 15.7595L139.087 13.7605C136.22 13.848 133.918 14.3725 132.337 15.4762L133.482 17.1158ZM139.151 15.7595L142.063 15.6635L141.997 13.6645L139.085 13.7605L139.151 15.7595ZM143.03 14.664V13.64H141.03V14.664H143.03ZM143.03 13.64C143.03 12.1206 142.71 10.7631 141.769 9.91943L140.434 11.4086C140.731 11.6742 141.03 12.3008 141.03 13.64H143.03ZM141.769 9.91943C140.91 9.14891 139.765 8.832 138.478 8.832V10.832C139.452 10.832 140.056 11.0698 140.434 11.4086L141.769 9.91943ZM138.478 8.832C137.477 8.832 136.514 8.98725 135.594 9.30184L136.242 11.1942C136.943 10.9541 137.687 10.832 138.478 10.832V8.832ZM135.617 9.29442C134.764 9.56379 133.961 9.87994 133.21 10.2442L134.082 12.0438C134.739 11.7254 135.451 11.4442 136.219 11.2016L135.617 9.29442ZM134.571 10.7654L133.707 8.65337L131.856 9.41063L132.72 11.5226L134.571 10.7654ZM133.259 9.91085C133.923 9.55042 134.733 9.23504 135.699 8.97323L135.176 7.04277C134.095 7.33563 133.134 7.70291 132.305 8.15315L133.259 9.91085ZM135.718 8.968C136.647 8.69691 137.619 8.56 138.638 8.56V6.56C137.438 6.56 136.276 6.72175 135.158 7.048L135.718 8.968ZM139.43 15.7128C137.273 15.7991 135.527 16.1421 134.439 16.9237L135.605 18.5483C136.18 18.1353 137.401 17.7956 139.51 17.7112L139.43 15.7128ZM134.429 16.9309C133.339 17.7337 132.806 18.888 132.806 20.264H134.806C134.806 19.464 135.083 18.9329 135.615 18.5411L134.429 16.9309ZM132.806 20.264C132.806 21.4272 133.164 22.4714 134.056 23.1654L135.284 21.5866C135.024 21.3846 134.806 21.0208 134.806 20.264H132.806ZM134.07 23.176C134.877 23.7812 135.859 24.048 136.942 24.048V22.048C136.19 22.048 135.658 21.8668 135.27 21.576L134.07 23.176ZM136.942 24.048C138.584 24.048 140.025 23.5968 141.193 22.6364L139.923 21.0916C139.171 21.7099 138.202 22.048 136.942 22.048V24.048ZM141.203 22.628C142.456 21.5703 142.998 20.0088 142.998 18.152H140.998C140.998 19.6232 140.58 20.5364 139.913 21.1L141.203 22.628ZM142.998 18.152V16.616H140.998V18.152H142.998ZM141.96 15.6167L139.432 15.7127L139.508 17.7113L142.036 17.6153L141.96 15.6167ZM159.103 7.592L158.987 8.58515L159.017 8.58875L159.048 8.59046L159.103 7.592ZM160.095 7.72L161.086 7.85457L161.209 6.95071L160.32 6.74561L160.095 7.72ZM159.743 10.312L159.519 11.2864L160.587 11.5329L160.734 10.4466L159.743 10.312ZM158.815 10.152L158.683 11.1433L158.691 11.1443L158.815 10.152ZM155.999 10.504L156.42 11.411L156.42 11.411L155.999 10.504ZM154.399 11.688L155.122 12.3792L155.129 12.3716L155.137 12.3637L154.399 11.688ZM153.279 13.48L152.349 13.1135L152.344 13.1258L152.34 13.1383L153.279 13.48ZM152.895 25V26H153.895V25H152.895ZM150.079 25H149.079V26H150.079V25ZM150.079 7.848V6.848H149.079V7.848H150.079ZM152.383 7.848L153.378 7.74649L153.287 6.848H152.383V7.848ZM152.703 10.984L151.709 11.0855L151.8 11.984H152.703V10.984ZM152.831 10.984V11.984H153.414L153.701 11.477L152.831 10.984ZM154.143 9.256L154.85 9.96311L154.858 9.95589L154.865 9.94853L154.143 9.256ZM155.903 8.008L156.315 8.91937L156.327 8.91392L156.339 8.90816L155.903 8.008ZM158.079 8.528C158.355 8.528 158.657 8.54642 158.987 8.58515L159.22 6.59885C158.824 6.55224 158.443 6.528 158.079 6.528V8.528ZM159.048 8.59046C159.393 8.60965 159.664 8.64681 159.871 8.69439L160.32 6.74561C159.972 6.66519 159.581 6.61702 159.159 6.59354L159.048 8.59046ZM159.104 7.58543L158.752 10.1774L160.734 10.4466L161.086 7.85457L159.104 7.58543ZM159.968 9.33761C159.652 9.26454 159.308 9.20579 158.939 9.15972L158.691 11.1443C159.005 11.1835 159.28 11.2315 159.519 11.2864L159.968 9.33761ZM158.948 9.16077C158.587 9.11273 158.234 9.088 157.887 9.088V11.088C158.138 11.088 158.404 11.1059 158.683 11.1432L158.948 9.16077ZM157.887 9.088C157.081 9.088 156.308 9.25814 155.578 9.59699L156.42 11.411C156.885 11.1952 157.371 11.088 157.887 11.088V9.088ZM155.578 9.59699C154.855 9.93283 154.216 10.4085 153.662 11.0123L155.137 12.3637C155.522 11.9435 155.949 11.6298 156.42 11.411L155.578 9.59699ZM153.677 10.9968C153.108 11.5913 152.668 12.3026 152.349 13.1135L154.21 13.8465C154.445 13.2494 154.752 12.766 155.122 12.3792L153.677 10.9968ZM152.34 13.1383C152.038 13.9685 151.895 14.8759 151.895 15.848H153.895C153.895 15.0707 154.009 14.3995 154.219 13.8217L152.34 13.1383ZM151.895 15.848V25H153.895V15.848H151.895ZM152.895 24H150.079V26H152.895V24ZM151.079 25V7.848H149.079V25H151.079ZM150.079 8.848H152.383V6.848H150.079V8.848ZM151.389 7.94951L151.709 11.0855L153.698 10.8825L153.378 7.74649L151.389 7.94951ZM152.703 11.984H152.831V9.984H152.703V11.984ZM153.701 11.477C154.02 10.9141 154.403 10.4104 154.85 9.96311L153.436 8.54889C152.86 9.12561 152.368 9.77387 151.961 10.491L153.701 11.477ZM154.865 9.94853C155.29 9.50547 155.772 9.16452 156.315 8.91937L155.492 7.09663C154.712 7.44881 154.021 7.93987 153.422 8.56347L154.865 9.94853ZM156.339 8.90816C156.855 8.65868 157.429 8.528 158.079 8.528V6.528C157.151 6.528 156.275 6.71732 155.468 7.10784L156.339 8.90816ZM170.338 22.92L170.48 23.9099L170.502 23.9067L170.525 23.9023L170.338 22.92ZM171.426 22.664H172.426V21.31L171.132 21.7082L171.426 22.664ZM171.426 24.808L171.873 25.7024L172.426 25.426V24.808H171.426ZM170.146 25.16L169.994 24.1716L169.976 24.1745L169.957 24.178L170.146 25.16ZM166.05 24.872L165.656 25.7911L165.672 25.7978L165.688 25.804L166.05 24.872ZM164.226 23.24L163.373 23.7614L164.226 23.24ZM163.522 10.024H164.522V9.024H163.522V10.024ZM161.09 10.024H160.09V11.024H161.09V10.024ZM161.09 8.68L160.676 7.76963L160.09 8.03608V8.68H161.09ZM163.554 7.56L163.968 8.47037L164.378 8.28401L164.51 7.8535L163.554 7.56ZM164.674 3.912V2.912H163.935L163.718 3.6185L164.674 3.912ZM166.338 3.912H167.338V2.912H166.338V3.912ZM166.338 7.848H165.338V8.848H166.338V7.848ZM171.298 7.848H172.298V6.848H171.298V7.848ZM171.298 10.024V11.024H172.298V10.024H171.298ZM166.338 10.024V9.024H165.338V10.024H166.338ZM167.074 22.28L166.352 22.9719L166.367 22.9873L166.382 23.002L167.074 22.28ZM169.026 24.016C169.503 24.016 169.988 23.9802 170.48 23.9099L170.197 21.9301C169.793 21.9878 169.403 22.016 169.026 22.016V24.016ZM170.525 23.9023C170.991 23.8135 171.394 23.7202 171.72 23.6198L171.132 21.7082C170.904 21.7785 170.581 21.8558 170.151 21.9377L170.525 23.9023ZM170.426 22.664V24.808H172.426V22.664H170.426ZM170.979 23.9136C170.815 23.9955 170.506 24.0929 169.994 24.1716L170.298 26.1484C170.896 26.0564 171.44 25.9192 171.873 25.7024L170.979 23.9136ZM169.957 24.178C169.459 24.2739 168.989 24.32 168.546 24.32V26.32C169.128 26.32 169.724 26.2594 170.335 26.142L169.957 24.178ZM168.546 24.32C167.763 24.32 167.055 24.1899 166.413 23.94L165.688 25.804C166.581 26.1514 167.537 26.32 168.546 26.32V24.32ZM166.444 23.9529C165.909 23.7233 165.453 23.3295 165.079 22.7185L163.373 23.7614C163.938 24.6865 164.698 25.3807 165.656 25.7911L166.444 23.9529ZM165.079 22.7185C164.745 22.1707 164.522 21.3022 164.522 20.008H162.522C162.522 21.4871 162.769 22.7733 163.373 23.7614L165.079 22.7185ZM164.522 20.008V10.024H162.522V20.008H164.522ZM163.522 9.024H161.09V11.024H163.522V9.024ZM162.09 10.024V8.68H160.09V10.024H162.09ZM161.504 9.59037L163.968 8.47037L163.14 6.64963L160.676 7.76963L161.504 9.59037ZM164.51 7.8535L165.63 4.2055L163.718 3.6185L162.598 7.2665L164.51 7.8535ZM164.674 4.912H166.338V2.912H164.674V4.912ZM165.338 3.912V7.848H167.338V3.912H165.338ZM166.338 8.848H171.298V6.848H166.338V8.848ZM170.298 7.848V10.024H172.298V7.848H170.298ZM171.298 9.024H166.338V11.024H171.298V9.024ZM165.338 10.024V19.944H167.338V10.024H165.338ZM165.338 19.944C165.338 21.1263 165.614 22.2017 166.352 22.9719L167.796 21.5881C167.553 21.3343 167.338 20.8523 167.338 19.944H165.338ZM166.382 23.002C167.102 23.6919 168.011 24.016 169.026 24.016V22.016C168.463 22.016 168.07 21.8495 167.766 21.558L166.382 23.002ZM185.261 8.488L184.738 9.34088L184.746 9.34549L185.261 8.488ZM187.693 11.208L186.789 11.6354L186.793 11.6453L186.798 11.6552L187.693 11.208ZM188.557 16.968V17.968H189.557V16.968H188.557ZM176.813 16.968V15.968H175.79L175.813 16.99L176.813 16.968ZM178.285 21.416L177.547 22.0917L177.555 22.0997L177.562 22.1076L178.285 21.416ZM185.165 22.632L185.389 23.6064L185.398 23.6043L185.407 23.6021L185.165 22.632ZM187.789 21.736H188.789V20.2195L187.395 20.8169L187.789 21.736ZM187.789 24.2L188.191 25.1156L188.789 24.8531V24.2H187.789ZM185.197 25.032L185.001 24.0514L184.989 24.0538L184.977 24.0564L185.197 25.032ZM177.837 24.328L177.365 25.21L177.371 25.2132L177.837 24.328ZM174.925 21.384L174.036 21.8426L174.04 21.8513L174.045 21.8598L174.925 21.384ZM174.829 11.72L173.926 11.29L173.92 11.3019L174.829 11.72ZM177.485 8.616L176.952 7.76974L176.945 7.77431L177.485 8.616ZM178.253 11.144L177.51 10.474L177.509 10.475L178.253 11.144ZM176.877 14.728L175.881 14.6312L175.775 15.728H176.877V14.728ZM185.613 14.728V15.728H186.613V14.728H185.613ZM185.165 12.168L184.24 12.5487L184.24 12.5487L185.165 12.168ZM183.789 10.472L183.207 11.2857L183.224 11.2974L183.241 11.3085L183.789 10.472ZM181.485 8.528C182.81 8.528 183.879 8.81483 184.738 9.34085L185.783 7.63515C184.551 6.88117 183.104 6.528 181.485 6.528V8.528ZM184.746 9.34549C185.636 9.87922 186.315 10.6326 186.789 11.6354L188.597 10.7806C187.961 9.43674 187.019 8.37678 185.775 7.63051L184.746 9.34549ZM186.798 11.6552C187.292 12.6423 187.557 13.8379 187.557 15.272H189.557C189.557 13.5915 189.246 12.0777 188.587 10.7608L186.798 11.6552ZM187.557 15.272V16.968H189.557V15.272H187.557ZM188.557 15.968H176.813V17.968H188.557V15.968ZM175.813 16.99C175.859 19.0777 176.39 20.8288 177.547 22.0917L179.022 20.7403C178.302 19.9552 177.852 18.7409 177.812 16.946L175.813 16.99ZM177.562 22.1076C178.753 23.3509 180.372 23.92 182.285 23.92V21.92C180.784 21.92 179.737 21.4865 179.007 20.7244L177.562 22.1076ZM182.285 23.92C183.429 23.92 184.467 23.8193 185.389 23.6064L184.94 21.6576C184.198 21.8287 183.316 21.92 182.285 21.92V23.92ZM185.407 23.6021C186.317 23.3746 187.243 23.0579 188.183 22.6551L187.395 20.8169C186.543 21.1821 185.718 21.4628 184.922 21.6619L185.407 23.6021ZM186.789 21.736V24.2H188.789V21.736H186.789ZM187.387 23.2844C186.572 23.6421 185.777 23.8962 185.001 24.0514L185.393 26.0126C186.323 25.8265 187.256 25.5259 188.191 25.1156L187.387 23.2844ZM184.977 24.0564C184.215 24.2278 183.279 24.32 182.157 24.32V26.32C183.38 26.32 184.471 26.2202 185.416 26.0076L184.977 24.0564ZM182.157 24.32C180.674 24.32 179.398 24.0187 178.302 23.4428L177.371 25.2132C178.793 25.9599 180.396 26.32 182.157 26.32V24.32ZM178.308 23.4461C177.253 22.8823 176.42 22.047 175.804 20.9082L174.045 21.8598C174.837 23.3237 175.945 24.451 177.365 25.2099L178.308 23.4461ZM175.813 20.9254C175.221 19.7782 174.901 18.3339 174.901 16.552H172.901C172.901 18.5675 173.263 20.3445 174.036 21.8426L175.813 20.9254ZM174.901 16.552C174.901 14.7815 175.193 13.3207 175.737 12.1381L173.92 11.3019C173.227 12.8073 172.901 14.5678 172.901 16.552H174.901ZM175.731 12.1499C176.3 10.9556 177.068 10.0716 178.025 9.45769L176.945 7.77431C175.64 8.61104 174.637 9.79645 173.926 11.2901L175.731 12.1499ZM178.017 9.46223C178.992 8.84843 180.137 8.528 181.485 8.528V6.528C179.803 6.528 178.281 6.9329 176.952 7.76977L178.017 9.46223ZM181.453 8.832C179.87 8.832 178.517 9.35865 177.51 10.474L178.995 11.814C179.567 11.18 180.348 10.832 181.453 10.832V8.832ZM177.509 10.475C176.556 11.5339 176.044 12.9549 175.881 14.6312L177.872 14.8248C178.008 13.4291 178.413 12.4607 178.996 11.813L177.509 10.475ZM176.877 15.728H185.613V13.728H176.877V15.728ZM186.613 14.728C186.613 13.6477 186.448 12.6595 186.089 11.7872L184.24 12.5487C184.478 13.1271 184.613 13.8456 184.613 14.728H186.613ZM186.089 11.7872C185.719 10.8874 185.134 10.1582 184.337 9.63554L183.241 11.3085C183.68 11.5965 184.013 11.9979 184.24 12.5487L186.089 11.7872ZM184.37 9.65827C183.558 9.07802 182.557 8.832 181.453 8.832V10.832C182.268 10.832 182.825 11.0126 183.207 11.2857L184.37 9.65827ZM201.947 7.592L201.83 8.58515L201.861 8.58875L201.892 8.59046L201.947 7.592ZM202.939 7.72L203.93 7.85457L204.053 6.95071L203.164 6.74561L202.939 7.72ZM202.587 10.312L202.362 11.2864L203.431 11.5329L203.578 10.4466L202.587 10.312ZM201.659 10.152L201.527 11.1433L201.535 11.1443L201.659 10.152ZM198.843 10.504L199.264 11.411L199.264 11.411L198.843 10.504ZM197.243 11.688L197.966 12.3792L197.973 12.3716L197.98 12.3637L197.243 11.688ZM196.123 13.48L195.193 13.1135L195.188 13.1258L195.183 13.1383L196.123 13.48ZM195.739 25V26H196.739V25H195.739ZM192.923 25H191.923V26H192.923V25ZM192.923 7.848V6.848H191.923V7.848H192.923ZM195.227 7.848L196.222 7.74649L196.13 6.848H195.227V7.848ZM195.547 10.984L194.552 11.0855L194.644 11.984H195.547V10.984ZM195.675 10.984V11.984H196.258L196.545 11.477L195.675 10.984ZM196.987 9.256L197.694 9.96311L197.701 9.95589L197.709 9.94853L196.987 9.256ZM198.747 8.008L199.159 8.91937L199.171 8.91392L199.183 8.90816L198.747 8.008ZM200.923 8.528C201.199 8.528 201.501 8.54642 201.83 8.58515L202.064 6.59885C201.668 6.55224 201.287 6.528 200.923 6.528V8.528ZM201.892 8.59046C202.237 8.60965 202.508 8.64681 202.714 8.69439L203.164 6.74561C202.816 6.66519 202.425 6.61702 202.003 6.59354L201.892 8.59046ZM201.948 7.58543L201.596 10.1774L203.578 10.4466L203.93 7.85457L201.948 7.58543ZM202.812 9.33761C202.495 9.26454 202.152 9.20579 201.783 9.15972L201.535 11.1443C201.849 11.1835 202.124 11.2315 202.362 11.2864L202.812 9.33761ZM201.791 9.16077C201.431 9.11273 201.077 9.088 200.731 9.088V11.088C200.982 11.088 201.247 11.1059 201.527 11.1432L201.791 9.16077ZM200.731 9.088C199.925 9.088 199.152 9.25814 198.422 9.59699L199.264 11.411C199.729 11.1952 200.215 11.088 200.731 11.088V9.088ZM198.422 9.59699C197.699 9.93283 197.059 10.4085 196.506 11.0123L197.98 12.3637C198.365 11.9435 198.793 11.6298 199.264 11.411L198.422 9.59699ZM196.52 10.9968C195.952 11.5913 195.512 12.3026 195.193 13.1135L197.054 13.8465C197.289 13.2494 197.596 12.766 197.966 12.3792L196.52 10.9968ZM195.183 13.1383C194.881 13.9685 194.739 14.8759 194.739 15.848H196.739C196.739 15.0707 196.853 14.3995 197.063 13.8217L195.183 13.1383ZM194.739 15.848V25H196.739V15.848H194.739ZM195.739 24H192.923V26H195.739V24ZM193.923 25V7.848H191.923V25H193.923ZM192.923 8.848H195.227V6.848H192.923V8.848ZM194.232 7.94951L194.552 11.0855L196.542 10.8825L196.222 7.74649L194.232 7.94951ZM195.547 11.984H195.675V9.984H195.547V11.984ZM196.545 11.477C196.864 10.9141 197.247 10.4104 197.694 9.96311L196.28 8.54889C195.703 9.12561 195.211 9.77387 194.805 10.491L196.545 11.477ZM197.709 9.94853C198.134 9.50547 198.616 9.16452 199.159 8.91937L198.336 7.09663C197.556 7.44881 196.864 7.93987 196.266 8.56347L197.709 9.94853ZM199.183 8.90816C199.698 8.65868 200.273 8.528 200.923 8.528V6.528C199.994 6.528 199.119 6.71732 198.312 7.10784L199.183 8.90816Z" fill="#3C3799"/>
<defs>
<filter id="filter0_i_0_1" x="0.210114" y="0.679993" width="202.729" height="36" filterUnits="userSpaceOnUse" color-interpolation-filters="sRGB">
<feFlood flood-opacity="0" result="BackgroundImageFix"/>
<feBlend mode="normal" in="SourceGraphic" in2="BackgroundImageFix" result="shape"/>
<feColorMatrix in="SourceAlpha" type="matrix" values="0 0 0 0 0 0 0 0 0 0 0 0 0 0 0 0 0 0 127 0" result="hardAlpha"/>
<feOffset dy="4"/>
<feGaussianBlur stdDeviation="2"/>
<feComposite in2="hardAlpha" operator="arithmetic" k2="-1" k3="1"/>
<feColorMatrix type="matrix" values="0 0 0 0 0 0 0 0 0 0 0 0 0 0 0 0 0 0 0.25 0"/>
<feBlend mode="normal" in2="shape" result="effect1_innerShadow_0_1"/>
</filter>
</defs>
</svg>
