<svg width="219" height="33" viewBox="0 0 219 33" fill="none" xmlns="http://www.w3.org/2000/svg">
<g filter="url(#filter0_i_0_1)">
<path d="M15.1645 18.664C15.1645 20.008 14.8338 21.1813 14.1725 22.184C13.5112 23.1867 12.5512 23.9653 11.2925 24.52C10.0552 25.0533 8.5405 25.32 6.7485 25.32C5.95917 25.32 5.1805 25.2667 4.4125 25.16C3.66583 25.0533 2.9405 24.904 2.2365 24.712C1.55383 24.4987 0.903167 24.2427 0.2845 23.944V19.432C1.3725 19.9013 2.4925 20.3387 3.6445 20.744C4.81783 21.128 5.9805 21.32 7.1325 21.32C7.92183 21.32 8.55117 21.2133 9.0205 21C9.51117 20.7867 9.86317 20.4987 10.0765 20.136C10.3112 19.7733 10.4285 19.3573 10.4285 18.888C10.4285 18.312 10.2258 17.8213 9.8205 17.416C9.4365 17.0107 8.91383 16.6373 8.2525 16.296C7.59117 15.9333 6.83383 15.5493 5.9805 15.144C5.44717 14.888 4.87117 14.5893 4.2525 14.248C3.63383 13.8853 3.0365 13.448 2.4605 12.936C1.90583 12.4027 1.44717 11.7627 1.0845 11.016C0.721833 10.2693 0.5405 9.37333 0.5405 8.328C0.5405 6.96267 0.849833 5.8 1.4685 4.84C2.1085 3.85866 3.0045 3.112 4.1565 2.6C5.32983 2.088 6.70583 1.832 8.2845 1.832C9.47917 1.832 10.6098 1.97067 11.6765 2.248C12.7645 2.52533 13.8952 2.92 15.0685 3.432L13.5005 7.208C12.4552 6.78133 11.5165 6.45067 10.6845 6.216C9.8525 5.98133 8.99917 5.864 8.1245 5.864C7.52717 5.864 7.01517 5.96 6.5885 6.152C6.16183 6.344 5.83117 6.61067 5.5965 6.952C5.38317 7.29333 5.2765 7.69867 5.2765 8.168C5.2765 8.70133 5.4365 9.16 5.7565 9.544C6.0765 9.90667 6.5565 10.2587 7.1965 10.6C7.8365 10.9413 8.6365 11.3467 9.5965 11.816C10.7698 12.3707 11.7618 12.9467 12.5725 13.544C13.4045 14.1413 14.0445 14.8453 14.4925 15.656C14.9405 16.4667 15.1645 17.4693 15.1645 18.664ZM23.7015 7.528V25H18.9335V7.528H23.7015ZM21.3335 0.679998C22.0375 0.679998 22.6455 0.850665 23.1575 1.192C23.6695 1.512 23.9255 2.12 23.9255 3.016C23.9255 3.89067 23.6695 4.49867 23.1575 4.84C22.6455 5.18133 22.0375 5.352 21.3335 5.352C20.6082 5.352 19.9895 5.18133 19.4775 4.84C18.9868 4.49867 18.7415 3.89067 18.7415 3.016C18.7415 2.12 18.9868 1.512 19.4775 1.192C19.9895 0.850665 20.6082 0.679998 21.3335 0.679998ZM49.1955 7.208C51.1795 7.208 52.6728 7.72 53.6755 8.744C54.6995 9.74667 55.2115 11.368 55.2115 13.608V25H50.4435V14.792C50.4435 13.5333 50.2302 12.5947 49.8035 11.976C49.3768 11.336 48.7155 11.016 47.8195 11.016C46.5608 11.016 45.6648 11.464 45.1315 12.36C44.5982 13.256 44.3315 14.5467 44.3315 16.232V25H39.5635V14.792C39.5635 13.96 39.4675 13.2667 39.2755 12.712C39.0835 12.1573 38.7955 11.7413 38.4115 11.464C38.0275 11.1653 37.5368 11.016 36.9395 11.016C36.0648 11.016 35.3715 11.24 34.8595 11.688C34.3475 12.136 33.9848 12.7867 33.7715 13.64C33.5582 14.4933 33.4515 15.5387 33.4515 16.776V25H28.6835V7.528H32.3315L32.9715 9.768H33.2275C33.5902 9.17067 34.0382 8.69067 34.5715 8.328C35.1048 7.944 35.6915 7.66667 36.3315 7.496C36.9928 7.304 37.6542 7.208 38.3155 7.208C39.5955 7.208 40.6835 7.42133 41.5795 7.848C42.4755 8.25333 43.1582 8.89333 43.6275 9.768H44.0435C44.5768 8.872 45.3128 8.22133 46.2515 7.816C47.2115 7.41067 48.1928 7.208 49.1955 7.208ZM69.849 7.208C71.8117 7.208 73.401 7.976 74.617 9.512C75.833 11.0267 76.441 13.2667 76.441 16.232C76.441 18.216 76.153 19.8907 75.577 21.256C75.001 22.6 74.2117 23.6133 73.209 24.296C72.2063 24.9787 71.0437 25.32 69.721 25.32C68.889 25.32 68.1637 25.2133 67.545 25C66.9477 24.7867 66.4357 24.5093 66.009 24.168C65.5823 23.8267 65.209 23.464 64.889 23.08H64.633C64.7183 23.4853 64.7823 23.912 64.825 24.36C64.8677 24.7867 64.889 25.2133 64.889 25.64V32.68H60.121V7.528H63.993L64.665 9.8H64.889C65.209 9.33067 65.593 8.904 66.041 8.52C66.489 8.11467 67.0223 7.79467 67.641 7.56C68.281 7.32533 69.017 7.208 69.849 7.208ZM68.313 11.016C67.481 11.016 66.8197 11.1867 66.329 11.528C65.8383 11.8693 65.4757 12.392 65.241 13.096C65.0277 13.7787 64.9103 14.6427 64.889 15.688V16.2C64.889 17.3307 64.9957 18.2907 65.209 19.08C65.4223 19.848 65.785 20.4347 66.297 20.84C66.809 21.2453 67.5023 21.448 68.377 21.448C69.1023 21.448 69.6997 21.2453 70.169 20.84C70.6383 20.4347 70.9903 19.8373 71.225 19.048C71.4597 18.2587 71.577 17.2987 71.577 16.168C71.577 14.4613 71.3103 13.1813 70.777 12.328C70.265 11.4533 69.4437 11.016 68.313 11.016ZM85.139 25H80.371V0.679998H85.139V25ZM97.321 7.208C98.9423 7.208 100.329 7.51733 101.481 8.136C102.654 8.75467 103.561 9.65067 104.201 10.824C104.841 11.9973 105.161 13.4373 105.161 15.144V17.448H93.897C93.9397 18.792 94.3343 19.848 95.081 20.616C95.849 21.384 96.905 21.768 98.249 21.768C99.3797 21.768 100.404 21.6613 101.321 21.448C102.238 21.2133 103.188 20.8613 104.169 20.392V24.072C103.316 24.4987 102.409 24.808 101.449 25C100.51 25.2133 99.369 25.32 98.025 25.32C96.2757 25.32 94.729 25 93.385 24.36C92.041 23.6987 90.985 22.7067 90.217 21.384C89.449 20.0613 89.065 18.3973 89.065 16.392C89.065 14.344 89.4063 12.648 90.089 11.304C90.793 9.93867 91.7637 8.91467 93.001 8.232C94.2383 7.54933 95.6783 7.208 97.321 7.208ZM97.353 10.6C96.4357 10.6 95.6677 10.8987 95.049 11.496C94.4517 12.0933 94.0997 13.0213 93.993 14.28H100.681C100.681 13.576 100.553 12.9467 100.297 12.392C100.062 11.8373 99.6997 11.4 99.209 11.08C98.7183 10.76 98.0997 10.6 97.353 10.6Z" fill="#645CFF"/>
<path d="M122.883 18.664C122.883 20.008 122.553 21.1813 121.891 22.184C121.23 23.1867 120.27 23.9653 119.011 24.52C117.774 25.0533 116.259 25.32 114.467 25.32C113.678 25.32 112.899 25.2667 112.131 25.16C111.385 25.0533 110.659 24.904 109.955 24.712C109.273 24.4987 108.622 24.2427 108.003 23.944V19.432C109.091 19.9013 110.211 20.3387 111.363 20.744C112.537 21.128 113.699 21.32 114.851 21.32C115.641 21.32 116.27 21.2133 116.739 21C117.23 20.7867 117.582 20.4987 117.795 20.136C118.03 19.7733 118.147 19.3573 118.147 18.888C118.147 18.312 117.945 17.8213 117.539 17.416C117.155 17.0107 116.633 16.6373 115.971 16.296C115.31 15.9333 114.553 15.5493 113.699 15.144C113.166 14.888 112.59 14.5893 111.971 14.248C111.353 13.8853 110.755 13.448 110.179 12.936C109.625 12.4027 109.166 11.7627 108.803 11.016C108.441 10.2693 108.259 9.37333 108.259 8.328C108.259 6.96267 108.569 5.8 109.187 4.84C109.827 3.85866 110.723 3.112 111.875 2.6C113.049 2.088 114.425 1.832 116.003 1.832C117.198 1.832 118.329 1.97067 119.395 2.248C120.483 2.52533 121.614 2.92 122.787 3.432L121.219 7.208C120.174 6.78133 119.235 6.45067 118.403 6.216C117.571 5.98133 116.718 5.864 115.843 5.864C115.246 5.864 114.734 5.96 114.307 6.152C113.881 6.344 113.55 6.61067 113.315 6.952C113.102 7.29333 112.995 7.69867 112.995 8.168C112.995 8.70133 113.155 9.16 113.475 9.544C113.795 9.90667 114.275 10.2587 114.915 10.6C115.555 10.9413 116.355 11.3467 117.315 11.816C118.489 12.3707 119.481 12.9467 120.291 13.544C121.123 14.1413 121.763 14.8453 122.211 15.656C122.659 16.4667 122.883 17.4693 122.883 18.664ZM134.012 21.512C134.546 21.512 135.058 21.4587 135.548 21.352C136.039 21.2453 136.53 21.1173 137.02 20.968V24.52C136.508 24.7333 135.868 24.9147 135.1 25.064C134.354 25.2347 133.532 25.32 132.636 25.32C131.591 25.32 130.652 25.1493 129.82 24.808C129.01 24.4667 128.359 23.88 127.868 23.048C127.399 22.1947 127.164 21.0213 127.164 19.528V11.112H124.892V9.096L127.516 7.496L128.892 3.816H131.932V7.528H136.828V11.112H131.932V19.528C131.932 20.1893 132.124 20.6907 132.508 21.032C132.892 21.352 133.394 21.512 134.012 21.512ZM147.695 7.176C150.042 7.176 151.834 7.688 153.071 8.712C154.33 9.71467 154.959 11.2613 154.959 13.352V25H151.631L150.703 22.632H150.575C150.085 23.2507 149.573 23.7627 149.039 24.168C148.527 24.5733 147.93 24.8613 147.247 25.032C146.586 25.224 145.765 25.32 144.783 25.32C143.759 25.32 142.831 25.128 141.999 24.744C141.189 24.3387 140.549 23.7307 140.079 22.92C139.61 22.088 139.375 21.0427 139.375 19.784C139.375 17.928 140.026 16.5627 141.327 15.688C142.629 14.792 144.581 14.3013 147.183 14.216L150.223 14.12V13.352C150.223 12.4347 149.978 11.7627 149.487 11.336C149.018 10.9093 148.357 10.696 147.503 10.696C146.65 10.696 145.818 10.824 145.007 11.08C144.197 11.3147 143.386 11.6133 142.575 11.976L141.007 8.744C141.946 8.25333 142.981 7.86933 144.111 7.592C145.263 7.31467 146.458 7.176 147.695 7.176ZM148.367 16.968C146.831 17.0107 145.765 17.288 145.167 17.8C144.57 18.312 144.271 18.984 144.271 19.816C144.271 20.5413 144.485 21.064 144.911 21.384C145.338 21.6827 145.893 21.832 146.575 21.832C147.599 21.832 148.463 21.5333 149.167 20.936C149.871 20.3173 150.223 19.4533 150.223 18.344V16.904L148.367 16.968ZM169.6 7.208C169.834 7.208 170.112 7.21867 170.432 7.24C170.752 7.26133 171.008 7.29333 171.2 7.336L170.848 11.816C170.698 11.7733 170.474 11.7413 170.176 11.72C169.898 11.6773 169.653 11.656 169.44 11.656C168.821 11.656 168.224 11.7413 167.648 11.912C167.072 12.0613 166.549 12.3067 166.08 12.648C165.632 12.9893 165.269 13.448 164.992 14.024C164.736 14.5787 164.608 15.272 164.608 16.104V25H159.84V7.528H163.456L164.16 10.472H164.384C164.725 9.87467 165.152 9.33067 165.664 8.84C166.176 8.34933 166.762 7.95467 167.424 7.656C168.106 7.35733 168.832 7.208 169.6 7.208ZM181.731 21.512C182.264 21.512 182.776 21.4587 183.267 21.352C183.758 21.2453 184.248 21.1173 184.739 20.968V24.52C184.227 24.7333 183.587 24.9147 182.819 25.064C182.072 25.2347 181.251 25.32 180.355 25.32C179.31 25.32 178.371 25.1493 177.539 24.808C176.728 24.4667 176.078 23.88 175.587 23.048C175.118 22.1947 174.883 21.0213 174.883 19.528V11.112H172.611V9.096L175.235 7.496L176.611 3.816H179.651V7.528H184.547V11.112H179.651V19.528C179.651 20.1893 179.843 20.6907 180.227 21.032C180.611 21.352 181.112 21.512 181.731 21.512ZM195.446 7.208C197.067 7.208 198.454 7.51733 199.606 8.136C200.779 8.75467 201.686 9.65067 202.326 10.824C202.966 11.9973 203.286 13.4373 203.286 15.144V17.448H192.022C192.065 18.792 192.459 19.848 193.206 20.616C193.974 21.384 195.03 21.768 196.374 21.768C197.505 21.768 198.529 21.6613 199.446 21.448C200.363 21.2133 201.313 20.8613 202.294 20.392V24.072C201.441 24.4987 200.534 24.808 199.574 25C198.635 25.2133 197.494 25.32 196.15 25.32C194.401 25.32 192.854 25 191.51 24.36C190.166 23.6987 189.11 22.7067 188.342 21.384C187.574 20.0613 187.19 18.3973 187.19 16.392C187.19 14.344 187.531 12.648 188.214 11.304C188.918 9.93867 189.889 8.91467 191.126 8.232C192.363 7.54933 193.803 7.208 195.446 7.208ZM195.478 10.6C194.561 10.6 193.793 10.8987 193.174 11.496C192.577 12.0933 192.225 13.0213 192.118 14.28H198.806C198.806 13.576 198.678 12.9467 198.422 12.392C198.187 11.8373 197.825 11.4 197.334 11.08C196.843 10.76 196.225 10.6 195.478 10.6ZM216.912 7.208C217.147 7.208 217.424 7.21867 217.744 7.24C218.064 7.26133 218.32 7.29333 218.512 7.336L218.16 11.816C218.011 11.7733 217.787 11.7413 217.488 11.72C217.211 11.6773 216.966 11.656 216.752 11.656C216.134 11.656 215.536 11.7413 214.96 11.912C214.384 12.0613 213.862 12.3067 213.392 12.648C212.944 12.9893 212.582 13.448 212.304 14.024C212.048 14.5787 211.92 15.272 211.92 16.104V25H207.152V7.528H210.768L211.472 10.472H211.696C212.038 9.87467 212.464 9.33067 212.976 8.84C213.488 8.34933 214.075 7.95467 214.736 7.656C215.419 7.35733 216.144 7.208 216.912 7.208Z" fill="#222222"/>
</g>
<defs>
<filter id="filter0_i_0_1" x="0.284485" y="0.679993" width="218.228" height="36" filterUnits="userSpaceOnUse" color-interpolation-filters="sRGB">
<feFlood flood-opacity="0" result="BackgroundImageFix"/>
<feBlend mode="normal" in="SourceGraphic" in2="BackgroundImageFix" result="shape"/>
<feColorMatrix in="SourceAlpha" type="matrix" values="0 0 0 0 0 0 0 0 0 0 0 0 0 0 0 0 0 0 127 0" result="hardAlpha"/>
<feOffset dy="4"/>
<feGaussianBlur stdDeviation="2"/>
<feComposite in2="hardAlpha" operator="arithmetic" k2="-1" k3="1"/>
<feColorMatrix type="matrix" values="0 0 0 0 0 0 0 0 0 0 0 0 0 0 0 0 0 0 0.25 0"/>
<feBlend mode="normal" in2="shape" result="effect1_innerShadow_0_1"/>
</filter>
</defs>
</svg>
